solid OpenSCAD_Model
  facet normal 0.0978934 -0.995197 0
    outer loop
      vertex -42.8121 -18.4307 0
      vertex -42.5 -18.4 1.5
      vertex -42.8121 -18.4307 1.5
    endloop
  endfacet
  facet normal 0.0978934 -0.995197 0
    outer loop
      vertex -42.5 -18.4 1.5
      vertex -42.8121 -18.4307 0
      vertex -42.5 -18.4 0
    endloop
  endfacet
  facet normal -0.956909 0.290388 0
    outer loop
      vertex -41.0218 -20.6123 0
      vertex -40.9307 -20.3121 1.5
      vertex -40.9307 -20.3121 0
    endloop
  endfacet
  facet normal -0.956909 0.290388 0
    outer loop
      vertex -40.9307 -20.3121 1.5
      vertex -41.0218 -20.6123 0
      vertex -41.0218 -20.6123 1.5
    endloop
  endfacet
  facet normal -0.634365 -0.773033 0
    outer loop
      vertex -41.6111 -18.6696 0
      vertex -41.3686 -18.8686 1.5
      vertex -41.6111 -18.6696 1.5
    endloop
  endfacet
  facet normal -0.634365 -0.773033 -0
    outer loop
      vertex -41.3686 -18.8686 1.5
      vertex -41.6111 -18.6696 0
      vertex -41.3686 -18.8686 0
    endloop
  endfacet
  facet normal 0.634365 -0.773033 0
    outer loop
      vertex -43.6314 -18.8686 0
      vertex -43.3889 -18.6696 1.5
      vertex -43.6314 -18.8686 1.5
    endloop
  endfacet
  facet normal 0.634365 -0.773033 0
    outer loop
      vertex -43.3889 -18.6696 1.5
      vertex -43.6314 -18.8686 0
      vertex -43.3889 -18.6696 0
    endloop
  endfacet
  facet normal 0.881982 0.471283 0
    outer loop
      vertex -43.8304 -20.8889 1.5
      vertex -43.9782 -20.6123 0
      vertex -43.9782 -20.6123 1.5
    endloop
  endfacet
  facet normal 0.881982 0.471283 0
    outer loop
      vertex -43.9782 -20.6123 0
      vertex -43.8304 -20.8889 1.5
      vertex -43.8304 -20.8889 0
    endloop
  endfacet
  facet normal -0.995197 0.0978934 0
    outer loop
      vertex -40.9307 -20.3121 0
      vertex -40.9 -20 1.5
      vertex -40.9 -20 0
    endloop
  endfacet
  facet normal -0.995197 0.0978934 0
    outer loop
      vertex -40.9 -20 1.5
      vertex -40.9307 -20.3121 0
      vertex -40.9307 -20.3121 1.5
    endloop
  endfacet
  facet normal -0.881982 -0.471283 0
    outer loop
      vertex -41.0218 -19.3877 0
      vertex -41.1696 -19.1111 1.5
      vertex -41.1696 -19.1111 0
    endloop
  endfacet
  facet normal -0.881982 -0.471283 0
    outer loop
      vertex -41.1696 -19.1111 1.5
      vertex -41.0218 -19.3877 0
      vertex -41.0218 -19.3877 1.5
    endloop
  endfacet
  facet normal -0.995197 -0.0978934 0
    outer loop
      vertex -40.9 -20 0
      vertex -40.9307 -19.6879 1.5
      vertex -40.9307 -19.6879 0
    endloop
  endfacet
  facet normal -0.995197 -0.0978934 0
    outer loop
      vertex -40.9307 -19.6879 1.5
      vertex -40.9 -20 0
      vertex -40.9 -20 1.5
    endloop
  endfacet
  facet normal 0.0978934 0.995197 -0
    outer loop
      vertex -42.5 -21.6 0
      vertex -42.8121 -21.5693 1.5
      vertex -42.5 -21.6 1.5
    endloop
  endfacet
  facet normal 0.0978934 0.995197 0
    outer loop
      vertex -42.8121 -21.5693 1.5
      vertex -42.5 -21.6 0
      vertex -42.8121 -21.5693 0
    endloop
  endfacet
  facet normal -0.956909 -0.290388 0
    outer loop
      vertex -40.9307 -19.6879 0
      vertex -41.0218 -19.3877 1.5
      vertex -41.0218 -19.3877 0
    endloop
  endfacet
  facet normal -0.956909 -0.290388 0
    outer loop
      vertex -41.0218 -19.3877 1.5
      vertex -40.9307 -19.6879 0
      vertex -40.9307 -19.6879 1.5
    endloop
  endfacet
  facet normal 0.471283 0.881982 -0
    outer loop
      vertex -43.1123 -21.4782 0
      vertex -43.3889 -21.3304 1.5
      vertex -43.1123 -21.4782 1.5
    endloop
  endfacet
  facet normal 0.471283 0.881982 0
    outer loop
      vertex -43.3889 -21.3304 1.5
      vertex -43.1123 -21.4782 0
      vertex -43.3889 -21.3304 0
    endloop
  endfacet
  facet normal 0.995197 0.0978934 0
    outer loop
      vertex -44.0693 -20.3121 1.5
      vertex -44.1 -20 0
      vertex -44.1 -20 1.5
    endloop
  endfacet
  facet normal 0.995197 0.0978934 0
    outer loop
      vertex -44.1 -20 0
      vertex -44.0693 -20.3121 1.5
      vertex -44.0693 -20.3121 0
    endloop
  endfacet
  facet normal -0.290388 -0.956909 0
    outer loop
      vertex -42.1879 -18.4307 0
      vertex -41.8877 -18.5218 1.5
      vertex -42.1879 -18.4307 1.5
    endloop
  endfacet
  facet normal -0.290388 -0.956909 -0
    outer loop
      vertex -41.8877 -18.5218 1.5
      vertex -42.1879 -18.4307 0
      vertex -41.8877 -18.5218 0
    endloop
  endfacet
  facet normal 0.956909 -0.290388 0
    outer loop
      vertex -44.0693 -19.6879 1.5
      vertex -43.9782 -19.3877 0
      vertex -43.9782 -19.3877 1.5
    endloop
  endfacet
  facet normal 0.956909 -0.290388 0
    outer loop
      vertex -43.9782 -19.3877 0
      vertex -44.0693 -19.6879 1.5
      vertex -44.0693 -19.6879 0
    endloop
  endfacet
  facet normal 0.290388 -0.956909 0
    outer loop
      vertex -43.1123 -18.5218 0
      vertex -42.8121 -18.4307 1.5
      vertex -43.1123 -18.5218 1.5
    endloop
  endfacet
  facet normal 0.290388 -0.956909 0
    outer loop
      vertex -42.8121 -18.4307 1.5
      vertex -43.1123 -18.5218 0
      vertex -42.8121 -18.4307 0
    endloop
  endfacet
  facet normal 0.995197 -0.0978934 0
    outer loop
      vertex -44.1 -20 1.5
      vertex -44.0693 -19.6879 0
      vertex -44.0693 -19.6879 1.5
    endloop
  endfacet
  facet normal 0.995197 -0.0978934 0
    outer loop
      vertex -44.0693 -19.6879 0
      vertex -44.1 -20 1.5
      vertex -44.1 -20 0
    endloop
  endfacet
  facet normal -0.773033 0.634365 0
    outer loop
      vertex -41.3686 -21.1314 0
      vertex -41.1696 -20.8889 1.5
      vertex -41.1696 -20.8889 0
    endloop
  endfacet
  facet normal -0.773033 0.634365 0
    outer loop
      vertex -41.1696 -20.8889 1.5
      vertex -41.3686 -21.1314 0
      vertex -41.3686 -21.1314 1.5
    endloop
  endfacet
  facet normal 0.881982 -0.471283 0
    outer loop
      vertex -43.9782 -19.3877 1.5
      vertex -43.8304 -19.1111 0
      vertex -43.8304 -19.1111 1.5
    endloop
  endfacet
  facet normal 0.881982 -0.471283 0
    outer loop
      vertex -43.8304 -19.1111 0
      vertex -43.9782 -19.3877 1.5
      vertex -43.9782 -19.3877 0
    endloop
  endfacet
  facet normal -0.0978934 -0.995197 0
    outer loop
      vertex -42.5 -18.4 0
      vertex -42.1879 -18.4307 1.5
      vertex -42.5 -18.4 1.5
    endloop
  endfacet
  facet normal -0.0978934 -0.995197 -0
    outer loop
      vertex -42.1879 -18.4307 1.5
      vertex -42.5 -18.4 0
      vertex -42.1879 -18.4307 0
    endloop
  endfacet
  facet normal -0.773033 -0.634365 0
    outer loop
      vertex -41.1696 -19.1111 0
      vertex -41.3686 -18.8686 1.5
      vertex -41.3686 -18.8686 0
    endloop
  endfacet
  facet normal -0.773033 -0.634365 0
    outer loop
      vertex -41.3686 -18.8686 1.5
      vertex -41.1696 -19.1111 0
      vertex -41.1696 -19.1111 1.5
    endloop
  endfacet
  facet normal -0.471283 -0.881982 0
    outer loop
      vertex -41.8877 -18.5218 0
      vertex -41.6111 -18.6696 1.5
      vertex -41.8877 -18.5218 1.5
    endloop
  endfacet
  facet normal -0.471283 -0.881982 -0
    outer loop
      vertex -41.6111 -18.6696 1.5
      vertex -41.8877 -18.5218 0
      vertex -41.6111 -18.6696 0
    endloop
  endfacet
  facet normal 0.634365 0.773033 -0
    outer loop
      vertex -43.3889 -21.3304 0
      vertex -43.6314 -21.1314 1.5
      vertex -43.3889 -21.3304 1.5
    endloop
  endfacet
  facet normal 0.634365 0.773033 0
    outer loop
      vertex -43.6314 -21.1314 1.5
      vertex -43.3889 -21.3304 0
      vertex -43.6314 -21.1314 0
    endloop
  endfacet
  facet normal 0.471283 -0.881982 0
    outer loop
      vertex -43.3889 -18.6696 0
      vertex -43.1123 -18.5218 1.5
      vertex -43.3889 -18.6696 1.5
    endloop
  endfacet
  facet normal 0.471283 -0.881982 0
    outer loop
      vertex -43.1123 -18.5218 1.5
      vertex -43.3889 -18.6696 0
      vertex -43.1123 -18.5218 0
    endloop
  endfacet
  facet normal -0.634365 0.773033 0
    outer loop
      vertex -41.3686 -21.1314 0
      vertex -41.6111 -21.3304 1.5
      vertex -41.3686 -21.1314 1.5
    endloop
  endfacet
  facet normal -0.634365 0.773033 0
    outer loop
      vertex -41.6111 -21.3304 1.5
      vertex -41.3686 -21.1314 0
      vertex -41.6111 -21.3304 0
    endloop
  endfacet
  facet normal 0.773033 -0.634365 0
    outer loop
      vertex -43.8304 -19.1111 1.5
      vertex -43.6314 -18.8686 0
      vertex -43.6314 -18.8686 1.5
    endloop
  endfacet
  facet normal 0.773033 -0.634365 0
    outer loop
      vertex -43.6314 -18.8686 0
      vertex -43.8304 -19.1111 1.5
      vertex -43.8304 -19.1111 0
    endloop
  endfacet
  facet normal -0.0978934 0.995197 0
    outer loop
      vertex -42.1879 -21.5693 0
      vertex -42.5 -21.6 1.5
      vertex -42.1879 -21.5693 1.5
    endloop
  endfacet
  facet normal -0.0978934 0.995197 0
    outer loop
      vertex -42.5 -21.6 1.5
      vertex -42.1879 -21.5693 0
      vertex -42.5 -21.6 0
    endloop
  endfacet
  facet normal 0 0 -1
    outer loop
      vertex -37.5 -26.5 0
      vertex -41.0218 -19.3877 0
      vertex -37.5 26.5 0
    endloop
  endfacet
  facet normal 0 0 -1
    outer loop
      vertex -37.5 26.5 0
      vertex -40.9307 19.6879 0
      vertex -40.9 20 0
    endloop
  endfacet
  facet normal 0 0 -1
    outer loop
      vertex -41.0218 19.3877 0
      vertex -37.5 26.5 0
      vertex -41.0218 -19.3877 0
    endloop
  endfacet
  facet normal 0 0 -1
    outer loop
      vertex -37.5 26.5 0
      vertex -41.0218 19.3877 0
      vertex -40.9307 19.6879 0
    endloop
  endfacet
  facet normal 0 0 -1
    outer loop
      vertex -41.1696 -19.1111 0
      vertex -41.0218 19.3877 0
      vertex -41.0218 -19.3877 0
    endloop
  endfacet
  facet normal 0 0 -1
    outer loop
      vertex -41.1696 -19.1111 0
      vertex -41.1696 19.1111 0
      vertex -41.0218 19.3877 0
    endloop
  endfacet
  facet normal 0 0 -1
    outer loop
      vertex -41.3686 -18.8686 0
      vertex -41.1696 19.1111 0
      vertex -41.1696 -19.1111 0
    endloop
  endfacet
  facet normal 0 0 -1
    outer loop
      vertex -41.3686 -18.8686 0
      vertex -41.3686 18.8686 0
      vertex -41.1696 19.1111 0
    endloop
  endfacet
  facet normal 0 0 -1
    outer loop
      vertex -41.6111 -18.6696 0
      vertex -41.3686 18.8686 0
      vertex -41.3686 -18.8686 0
    endloop
  endfacet
  facet normal 0 0 -1
    outer loop
      vertex -41.6111 -18.6696 0
      vertex -41.6111 18.6696 0
      vertex -41.3686 18.8686 0
    endloop
  endfacet
  facet normal 0 0 -1
    outer loop
      vertex -41.8877 -18.5218 0
      vertex -41.6111 18.6696 0
      vertex -41.6111 -18.6696 0
    endloop
  endfacet
  facet normal 0 0 -1
    outer loop
      vertex -41.8877 -18.5218 0
      vertex -41.8877 18.5218 0
      vertex -41.6111 18.6696 0
    endloop
  endfacet
  facet normal 0 0 -1
    outer loop
      vertex -42.1879 -18.4307 0
      vertex -41.8877 18.5218 0
      vertex -41.8877 -18.5218 0
    endloop
  endfacet
  facet normal 0 0 -1
    outer loop
      vertex -42.1879 -18.4307 0
      vertex -42.1879 18.4307 0
      vertex -41.8877 18.5218 0
    endloop
  endfacet
  facet normal 0 0 -1
    outer loop
      vertex -42.5 -18.4 0
      vertex -42.1879 18.4307 0
      vertex -42.1879 -18.4307 0
    endloop
  endfacet
  facet normal 0 0 -1
    outer loop
      vertex -42.5 -18.4 0
      vertex -42.5 18.4 0
      vertex -42.1879 18.4307 0
    endloop
  endfacet
  facet normal 0 0 -1
    outer loop
      vertex -42.8121 -18.4307 0
      vertex -42.5 18.4 0
      vertex -42.5 -18.4 0
    endloop
  endfacet
  facet normal 0 0 -1
    outer loop
      vertex -42.8121 -18.4307 0
      vertex -42.8121 18.4307 0
      vertex -42.5 18.4 0
    endloop
  endfacet
  facet normal 0 0 -1
    outer loop
      vertex -43.1123 -18.5218 0
      vertex -42.8121 18.4307 0
      vertex -42.8121 -18.4307 0
    endloop
  endfacet
  facet normal 0 0 -1
    outer loop
      vertex -43.1123 -18.5218 0
      vertex -43.1123 18.5218 0
      vertex -42.8121 18.4307 0
    endloop
  endfacet
  facet normal 0 0 -1
    outer loop
      vertex -43.3889 -18.6696 0
      vertex -43.1123 18.5218 0
      vertex -43.1123 -18.5218 0
    endloop
  endfacet
  facet normal 0 0 -1
    outer loop
      vertex -43.3889 -18.6696 0
      vertex -43.3889 18.6696 0
      vertex -43.1123 18.5218 0
    endloop
  endfacet
  facet normal 0 0 -1
    outer loop
      vertex -43.6314 -18.8686 0
      vertex -43.3889 18.6696 0
      vertex -43.3889 -18.6696 0
    endloop
  endfacet
  facet normal 0 0 -1
    outer loop
      vertex -43.6314 -18.8686 0
      vertex -43.6314 18.8686 0
      vertex -43.3889 18.6696 0
    endloop
  endfacet
  facet normal 0 0 -1
    outer loop
      vertex -43.8304 -19.1111 0
      vertex -43.6314 18.8686 0
      vertex -43.6314 -18.8686 0
    endloop
  endfacet
  facet normal 0 0 -1
    outer loop
      vertex -43.8304 -19.1111 0
      vertex -43.8304 19.1111 0
      vertex -43.6314 18.8686 0
    endloop
  endfacet
  facet normal 0 0 -1
    outer loop
      vertex -43.9782 -19.3877 0
      vertex -43.8304 19.1111 0
      vertex -43.8304 -19.1111 0
    endloop
  endfacet
  facet normal 0 0 -1
    outer loop
      vertex -43.9782 -19.3877 0
      vertex -43.9782 19.3877 0
      vertex -43.8304 19.1111 0
    endloop
  endfacet
  facet normal 0 0 -1
    outer loop
      vertex -49 -28 0
      vertex -43.9782 -19.3877 0
      vertex -44.0693 -19.6879 0
    endloop
  endfacet
  facet normal -0 0 -1
    outer loop
      vertex -43.9782 -19.3877 0
      vertex -49 -28 0
      vertex -43.9782 19.3877 0
    endloop
  endfacet
  facet normal 0 0 -1
    outer loop
      vertex -49 -28 0
      vertex -44.0693 -19.6879 0
      vertex -44.1 -20 0
    endloop
  endfacet
  facet normal 0 0 -1
    outer loop
      vertex -49 28 0
      vertex -43.9782 19.3877 0
      vertex -49 -28 0
    endloop
  endfacet
  facet normal 0 0 -1
    outer loop
      vertex 49 -28 0
      vertex 43.9782 -19.3877 0
      vertex 49 28 0
    endloop
  endfacet
  facet normal 0 0 -1
    outer loop
      vertex 49 28 0
      vertex 44.0693 19.6879 0
      vertex 44.1 20 0
    endloop
  endfacet
  facet normal 0 0 -1
    outer loop
      vertex 43.9782 19.3877 0
      vertex 49 28 0
      vertex 43.9782 -19.3877 0
    endloop
  endfacet
  facet normal 0 0 -1
    outer loop
      vertex 49 28 0
      vertex 43.9782 19.3877 0
      vertex 44.0693 19.6879 0
    endloop
  endfacet
  facet normal 0 0 -1
    outer loop
      vertex 43.8304 -19.1111 0
      vertex 43.9782 19.3877 0
      vertex 43.9782 -19.3877 0
    endloop
  endfacet
  facet normal 0 0 -1
    outer loop
      vertex 43.8304 -19.1111 0
      vertex 43.8304 19.1111 0
      vertex 43.9782 19.3877 0
    endloop
  endfacet
  facet normal 0 0 -1
    outer loop
      vertex 43.6314 -18.8686 0
      vertex 43.8304 19.1111 0
      vertex 43.8304 -19.1111 0
    endloop
  endfacet
  facet normal 0 0 -1
    outer loop
      vertex 43.6314 -18.8686 0
      vertex 43.6314 18.8686 0
      vertex 43.8304 19.1111 0
    endloop
  endfacet
  facet normal 0 0 -1
    outer loop
      vertex 43.3889 -18.6696 0
      vertex 43.6314 18.8686 0
      vertex 43.6314 -18.8686 0
    endloop
  endfacet
  facet normal 0 0 -1
    outer loop
      vertex 43.3889 -18.6696 0
      vertex 43.3889 18.6696 0
      vertex 43.6314 18.8686 0
    endloop
  endfacet
  facet normal 0 0 -1
    outer loop
      vertex 43.1123 -18.5218 0
      vertex 43.3889 18.6696 0
      vertex 43.3889 -18.6696 0
    endloop
  endfacet
  facet normal 0 0 -1
    outer loop
      vertex 43.1123 -18.5218 0
      vertex 43.1123 18.5218 0
      vertex 43.3889 18.6696 0
    endloop
  endfacet
  facet normal 0 0 -1
    outer loop
      vertex 42.8121 -18.4307 0
      vertex 43.1123 18.5218 0
      vertex 43.1123 -18.5218 0
    endloop
  endfacet
  facet normal 0 0 -1
    outer loop
      vertex 42.8121 -18.4307 0
      vertex 42.8121 18.4307 0
      vertex 43.1123 18.5218 0
    endloop
  endfacet
  facet normal 0 0 -1
    outer loop
      vertex 42.5 -18.4 0
      vertex 42.8121 18.4307 0
      vertex 42.8121 -18.4307 0
    endloop
  endfacet
  facet normal 0 0 -1
    outer loop
      vertex 42.5 -18.4 0
      vertex 42.5 18.4 0
      vertex 42.8121 18.4307 0
    endloop
  endfacet
  facet normal 0 0 -1
    outer loop
      vertex 42.1879 -18.4307 0
      vertex 42.5 18.4 0
      vertex 42.5 -18.4 0
    endloop
  endfacet
  facet normal 0 0 -1
    outer loop
      vertex 42.1879 -18.4307 0
      vertex 42.1879 18.4307 0
      vertex 42.5 18.4 0
    endloop
  endfacet
  facet normal 0 0 -1
    outer loop
      vertex 41.8877 -18.5218 0
      vertex 42.1879 18.4307 0
      vertex 42.1879 -18.4307 0
    endloop
  endfacet
  facet normal 0 0 -1
    outer loop
      vertex 41.8877 -18.5218 0
      vertex 41.8877 18.5218 0
      vertex 42.1879 18.4307 0
    endloop
  endfacet
  facet normal 0 0 -1
    outer loop
      vertex 41.6111 -18.6696 0
      vertex 41.8877 18.5218 0
      vertex 41.8877 -18.5218 0
    endloop
  endfacet
  facet normal 0 0 -1
    outer loop
      vertex 41.6111 -18.6696 0
      vertex 41.6111 18.6696 0
      vertex 41.8877 18.5218 0
    endloop
  endfacet
  facet normal 0 0 -1
    outer loop
      vertex 41.3686 -18.8686 0
      vertex 41.6111 18.6696 0
      vertex 41.6111 -18.6696 0
    endloop
  endfacet
  facet normal 0 0 -1
    outer loop
      vertex 41.3686 -18.8686 0
      vertex 41.3686 18.8686 0
      vertex 41.6111 18.6696 0
    endloop
  endfacet
  facet normal 0 0 -1
    outer loop
      vertex 41.1696 -19.1111 0
      vertex 41.3686 18.8686 0
      vertex 41.3686 -18.8686 0
    endloop
  endfacet
  facet normal 0 0 -1
    outer loop
      vertex 41.1696 -19.1111 0
      vertex 41.1696 19.1111 0
      vertex 41.3686 18.8686 0
    endloop
  endfacet
  facet normal 0 0 -1
    outer loop
      vertex 41.0218 -19.3877 0
      vertex 41.1696 19.1111 0
      vertex 41.1696 -19.1111 0
    endloop
  endfacet
  facet normal 0 0 -1
    outer loop
      vertex 41.0218 -19.3877 0
      vertex 41.0218 19.3877 0
      vertex 41.1696 19.1111 0
    endloop
  endfacet
  facet normal 0 0 -1
    outer loop
      vertex 37.5 -26.5 0
      vertex 41.0218 -19.3877 0
      vertex 40.9307 -19.6879 0
    endloop
  endfacet
  facet normal -0 0 -1
    outer loop
      vertex 41.0218 -19.3877 0
      vertex 37.5 -26.5 0
      vertex 41.0218 19.3877 0
    endloop
  endfacet
  facet normal 0 0 -1
    outer loop
      vertex 37.5 -26.5 0
      vertex 40.9307 -19.6879 0
      vertex 40.9 -20 0
    endloop
  endfacet
  facet normal 0 0 -1
    outer loop
      vertex 37.5 26.5 0
      vertex 41.0218 19.3877 0
      vertex 37.5 -26.5 0
    endloop
  endfacet
  facet normal 0 0 -1
    outer loop
      vertex 44.0693 -19.6879 0
      vertex 49 -28 0
      vertex 44.1 -20 0
    endloop
  endfacet
  facet normal 0 0 -1
    outer loop
      vertex 49 -28 0
      vertex 44.0693 -20.3121 0
      vertex 44.1 -20 0
    endloop
  endfacet
  facet normal 0 0 -1
    outer loop
      vertex 49 -28 0
      vertex 43.9782 -20.6123 0
      vertex 44.0693 -20.3121 0
    endloop
  endfacet
  facet normal 0 0 -1
    outer loop
      vertex 49 -28 0
      vertex 43.8304 -20.8889 0
      vertex 43.9782 -20.6123 0
    endloop
  endfacet
  facet normal 0 0 -1
    outer loop
      vertex 49 -28 0
      vertex 43.6314 -21.1314 0
      vertex 43.8304 -20.8889 0
    endloop
  endfacet
  facet normal 0 0 -1
    outer loop
      vertex 49 -28 0
      vertex 43.3889 -21.3304 0
      vertex 43.6314 -21.1314 0
    endloop
  endfacet
  facet normal 0 0 -1
    outer loop
      vertex 49 -28 0
      vertex 43.1123 -21.4782 0
      vertex 43.3889 -21.3304 0
    endloop
  endfacet
  facet normal 0 0 -1
    outer loop
      vertex 49 -28 0
      vertex 42.8121 -21.5693 0
      vertex 43.1123 -21.4782 0
    endloop
  endfacet
  facet normal 0 0 -1
    outer loop
      vertex 49 -28 0
      vertex 42.5 -21.6 0
      vertex 42.8121 -21.5693 0
    endloop
  endfacet
  facet normal 0 0 -1
    outer loop
      vertex 37.5 -26.5 0
      vertex 42.5 -21.6 0
      vertex 49 -28 0
    endloop
  endfacet
  facet normal -0 0 -1
    outer loop
      vertex 42.5 -21.6 0
      vertex 37.5 -26.5 0
      vertex 42.1879 -21.5693 0
    endloop
  endfacet
  facet normal -0 0 -1
    outer loop
      vertex 42.1879 -21.5693 0
      vertex 37.5 -26.5 0
      vertex 41.8877 -21.4782 0
    endloop
  endfacet
  facet normal -0 0 -1
    outer loop
      vertex 41.8877 -21.4782 0
      vertex 37.5 -26.5 0
      vertex 41.6111 -21.3304 0
    endloop
  endfacet
  facet normal 0 0 -1
    outer loop
      vertex 41.0218 19.3877 0
      vertex 37.5 26.5 0
      vertex 40.9307 19.6879 0
    endloop
  endfacet
  facet normal -0 0 -1
    outer loop
      vertex 40.9307 -20.3121 0
      vertex 37.5 -26.5 0
      vertex 40.9 -20 0
    endloop
  endfacet
  facet normal -0 0 -1
    outer loop
      vertex 41.0218 -20.6123 0
      vertex 37.5 -26.5 0
      vertex 40.9307 -20.3121 0
    endloop
  endfacet
  facet normal -0 0 -1
    outer loop
      vertex 41.1696 -20.8889 0
      vertex 37.5 -26.5 0
      vertex 41.0218 -20.6123 0
    endloop
  endfacet
  facet normal -0 0 -1
    outer loop
      vertex 41.3686 -21.1314 0
      vertex 37.5 -26.5 0
      vertex 41.1696 -20.8889 0
    endloop
  endfacet
  facet normal -0 0 -1
    outer loop
      vertex 41.6111 -21.3304 0
      vertex 37.5 -26.5 0
      vertex 41.3686 -21.1314 0
    endloop
  endfacet
  facet normal 0 0 -1
    outer loop
      vertex 49 -28 0
      vertex -37.5 -26.5 0
      vertex 37.5 -26.5 0
    endloop
  endfacet
  facet normal 0 0 -1
    outer loop
      vertex -40.9307 -19.6879 0
      vertex -37.5 -26.5 0
      vertex -40.9 -20 0
    endloop
  endfacet
  facet normal 0 0 -1
    outer loop
      vertex -37.5 -26.5 0
      vertex -40.9307 -20.3121 0
      vertex -40.9 -20 0
    endloop
  endfacet
  facet normal 0 0 -1
    outer loop
      vertex -37.5 -26.5 0
      vertex -41.0218 -20.6123 0
      vertex -40.9307 -20.3121 0
    endloop
  endfacet
  facet normal 0 0 -1
    outer loop
      vertex -37.5 -26.5 0
      vertex -41.1696 -20.8889 0
      vertex -41.0218 -20.6123 0
    endloop
  endfacet
  facet normal 0 0 -1
    outer loop
      vertex -37.5 -26.5 0
      vertex -41.3686 -21.1314 0
      vertex -41.1696 -20.8889 0
    endloop
  endfacet
  facet normal 0 0 -1
    outer loop
      vertex -37.5 -26.5 0
      vertex -41.6111 -21.3304 0
      vertex -41.3686 -21.1314 0
    endloop
  endfacet
  facet normal 0 0 -1
    outer loop
      vertex -37.5 -26.5 0
      vertex -41.8877 -21.4782 0
      vertex -41.6111 -21.3304 0
    endloop
  endfacet
  facet normal 0 0 -1
    outer loop
      vertex -37.5 -26.5 0
      vertex -42.1879 -21.5693 0
      vertex -41.8877 -21.4782 0
    endloop
  endfacet
  facet normal 0 0 -1
    outer loop
      vertex -37.5 -26.5 0
      vertex -42.5 -21.6 0
      vertex -42.1879 -21.5693 0
    endloop
  endfacet
  facet normal 0 0 -1
    outer loop
      vertex -37.5 -26.5 0
      vertex -42.8121 -21.5693 0
      vertex -42.5 -21.6 0
    endloop
  endfacet
  facet normal 0 0 -1
    outer loop
      vertex -49 -28 0
      vertex -42.8121 -21.5693 0
      vertex -37.5 -26.5 0
    endloop
  endfacet
  facet normal -0 0 -1
    outer loop
      vertex -42.8121 -21.5693 0
      vertex -49 -28 0
      vertex -43.1123 -21.4782 0
    endloop
  endfacet
  facet normal -0 0 -1
    outer loop
      vertex -43.1123 -21.4782 0
      vertex -49 -28 0
      vertex -43.3889 -21.3304 0
    endloop
  endfacet
  facet normal 0 0 -1
    outer loop
      vertex -43.9782 19.3877 0
      vertex -49 28 0
      vertex -44.0693 19.6879 0
    endloop
  endfacet
  facet normal -0 0 -1
    outer loop
      vertex -44.0693 -20.3121 0
      vertex -49 -28 0
      vertex -44.1 -20 0
    endloop
  endfacet
  facet normal -0 0 -1
    outer loop
      vertex -43.9782 -20.6123 0
      vertex -49 -28 0
      vertex -44.0693 -20.3121 0
    endloop
  endfacet
  facet normal -0 0 -1
    outer loop
      vertex -43.8304 -20.8889 0
      vertex -49 -28 0
      vertex -43.9782 -20.6123 0
    endloop
  endfacet
  facet normal -0 0 -1
    outer loop
      vertex -43.6314 -21.1314 0
      vertex -49 -28 0
      vertex -43.8304 -20.8889 0
    endloop
  endfacet
  facet normal -0 0 -1
    outer loop
      vertex -43.3889 -21.3304 0
      vertex -49 -28 0
      vertex -43.6314 -21.1314 0
    endloop
  endfacet
  facet normal 0 0 -1
    outer loop
      vertex -49 -28 0
      vertex -37.5 -26.5 0
      vertex 49 -28 0
    endloop
  endfacet
  facet normal 0 0 -1
    outer loop
      vertex 43.9782 -19.3877 0
      vertex 49 -28 0
      vertex 44.0693 -19.6879 0
    endloop
  endfacet
  facet normal 0 0 -1
    outer loop
      vertex 44.0693 20.3121 0
      vertex 49 28 0
      vertex 44.1 20 0
    endloop
  endfacet
  facet normal 0 0 -1
    outer loop
      vertex 43.9782 20.6123 0
      vertex 49 28 0
      vertex 44.0693 20.3121 0
    endloop
  endfacet
  facet normal 0 0 -1
    outer loop
      vertex 43.8304 20.8889 0
      vertex 49 28 0
      vertex 43.9782 20.6123 0
    endloop
  endfacet
  facet normal 0 0 -1
    outer loop
      vertex 43.6314 21.1314 0
      vertex 49 28 0
      vertex 43.8304 20.8889 0
    endloop
  endfacet
  facet normal 0 0 -1
    outer loop
      vertex 43.3889 21.3304 0
      vertex 49 28 0
      vertex 43.6314 21.1314 0
    endloop
  endfacet
  facet normal 0 0 -1
    outer loop
      vertex 43.1123 21.4782 0
      vertex 49 28 0
      vertex 43.3889 21.3304 0
    endloop
  endfacet
  facet normal 0 0 -1
    outer loop
      vertex 42.8121 21.5693 0
      vertex 49 28 0
      vertex 43.1123 21.4782 0
    endloop
  endfacet
  facet normal 0 0 -1
    outer loop
      vertex 42.5 21.6 0
      vertex 49 28 0
      vertex 42.8121 21.5693 0
    endloop
  endfacet
  facet normal 0 0 -1
    outer loop
      vertex 37.5 26.5 0
      vertex 42.5 21.6 0
      vertex 42.1879 21.5693 0
    endloop
  endfacet
  facet normal 0 0 -1
    outer loop
      vertex 37.5 26.5 0
      vertex 42.1879 21.5693 0
      vertex 41.8877 21.4782 0
    endloop
  endfacet
  facet normal 0 0 -1
    outer loop
      vertex 37.5 26.5 0
      vertex 41.8877 21.4782 0
      vertex 41.6111 21.3304 0
    endloop
  endfacet
  facet normal 0 0 -1
    outer loop
      vertex 37.5 26.5 0
      vertex 41.6111 21.3304 0
      vertex 41.3686 21.1314 0
    endloop
  endfacet
  facet normal 0 0 -1
    outer loop
      vertex 40.9307 19.6879 0
      vertex 37.5 26.5 0
      vertex 40.9 20 0
    endloop
  endfacet
  facet normal 0 0 -1
    outer loop
      vertex 37.5 26.5 0
      vertex 40.9307 20.3121 0
      vertex 40.9 20 0
    endloop
  endfacet
  facet normal 0 0 -1
    outer loop
      vertex 37.5 26.5 0
      vertex 41.0218 20.6123 0
      vertex 40.9307 20.3121 0
    endloop
  endfacet
  facet normal 0 0 -1
    outer loop
      vertex 37.5 26.5 0
      vertex 41.1696 20.8889 0
      vertex 41.0218 20.6123 0
    endloop
  endfacet
  facet normal 0 0 -1
    outer loop
      vertex 37.5 26.5 0
      vertex 41.3686 21.1314 0
      vertex 41.1696 20.8889 0
    endloop
  endfacet
  facet normal 0 0 -1
    outer loop
      vertex 42.5 21.6 0
      vertex 37.5 26.5 0
      vertex 49 28 0
    endloop
  endfacet
  facet normal 0 0 -1
    outer loop
      vertex -37.5 26.5 0
      vertex 49 28 0
      vertex 37.5 26.5 0
    endloop
  endfacet
  facet normal 0 0 -1
    outer loop
      vertex -41.0218 -19.3877 0
      vertex -37.5 -26.5 0
      vertex -40.9307 -19.6879 0
    endloop
  endfacet
  facet normal 0 0 -1
    outer loop
      vertex -40.9307 20.3121 0
      vertex -37.5 26.5 0
      vertex -40.9 20 0
    endloop
  endfacet
  facet normal 0 0 -1
    outer loop
      vertex -41.0218 20.6123 0
      vertex -37.5 26.5 0
      vertex -40.9307 20.3121 0
    endloop
  endfacet
  facet normal 0 0 -1
    outer loop
      vertex -41.1696 20.8889 0
      vertex -37.5 26.5 0
      vertex -41.0218 20.6123 0
    endloop
  endfacet
  facet normal 0 0 -1
    outer loop
      vertex -41.3686 21.1314 0
      vertex -37.5 26.5 0
      vertex -41.1696 20.8889 0
    endloop
  endfacet
  facet normal 0 0 -1
    outer loop
      vertex -41.6111 21.3304 0
      vertex -37.5 26.5 0
      vertex -41.3686 21.1314 0
    endloop
  endfacet
  facet normal 0 0 -1
    outer loop
      vertex -41.8877 21.4782 0
      vertex -37.5 26.5 0
      vertex -41.6111 21.3304 0
    endloop
  endfacet
  facet normal 0 0 -1
    outer loop
      vertex -42.1879 21.5693 0
      vertex -37.5 26.5 0
      vertex -41.8877 21.4782 0
    endloop
  endfacet
  facet normal 0 0 -1
    outer loop
      vertex -42.5 21.6 0
      vertex -37.5 26.5 0
      vertex -42.1879 21.5693 0
    endloop
  endfacet
  facet normal 0 0 -1
    outer loop
      vertex -42.8121 21.5693 0
      vertex -37.5 26.5 0
      vertex -42.5 21.6 0
    endloop
  endfacet
  facet normal 0 0 -1
    outer loop
      vertex -49 28 0
      vertex -42.8121 21.5693 0
      vertex -43.1123 21.4782 0
    endloop
  endfacet
  facet normal 0 0 -1
    outer loop
      vertex -49 28 0
      vertex -43.1123 21.4782 0
      vertex -43.3889 21.3304 0
    endloop
  endfacet
  facet normal 0 0 -1
    outer loop
      vertex -49 28 0
      vertex -43.3889 21.3304 0
      vertex -43.6314 21.1314 0
    endloop
  endfacet
  facet normal 0 0 -1
    outer loop
      vertex -44.0693 19.6879 0
      vertex -49 28 0
      vertex -44.1 20 0
    endloop
  endfacet
  facet normal 0 0 -1
    outer loop
      vertex -37.5 26.5 0
      vertex -49 28 0
      vertex 49 28 0
    endloop
  endfacet
  facet normal 0 0 -1
    outer loop
      vertex -42.8121 21.5693 0
      vertex -49 28 0
      vertex -37.5 26.5 0
    endloop
  endfacet
  facet normal 0 0 -1
    outer loop
      vertex -43.8304 20.8889 0
      vertex -49 28 0
      vertex -43.6314 21.1314 0
    endloop
  endfacet
  facet normal 0 0 -1
    outer loop
      vertex -43.9782 20.6123 0
      vertex -49 28 0
      vertex -43.8304 20.8889 0
    endloop
  endfacet
  facet normal 0 0 -1
    outer loop
      vertex -44.0693 20.3121 0
      vertex -49 28 0
      vertex -43.9782 20.6123 0
    endloop
  endfacet
  facet normal 0 0 -1
    outer loop
      vertex -44.1 20 0
      vertex -49 28 0
      vertex -44.0693 20.3121 0
    endloop
  endfacet
  facet normal -0.471283 0.881982 0
    outer loop
      vertex -41.6111 -21.3304 0
      vertex -41.8877 -21.4782 1.5
      vertex -41.6111 -21.3304 1.5
    endloop
  endfacet
  facet normal -0.471283 0.881982 0
    outer loop
      vertex -41.8877 -21.4782 1.5
      vertex -41.6111 -21.3304 0
      vertex -41.8877 -21.4782 0
    endloop
  endfacet
  facet normal 0.290388 0.956909 -0
    outer loop
      vertex -42.8121 -21.5693 0
      vertex -43.1123 -21.4782 1.5
      vertex -42.8121 -21.5693 1.5
    endloop
  endfacet
  facet normal 0.290388 0.956909 0
    outer loop
      vertex -43.1123 -21.4782 1.5
      vertex -42.8121 -21.5693 0
      vertex -43.1123 -21.4782 0
    endloop
  endfacet
  facet normal 0.773033 0.634365 0
    outer loop
      vertex -43.6314 -21.1314 1.5
      vertex -43.8304 -20.8889 0
      vertex -43.8304 -20.8889 1.5
    endloop
  endfacet
  facet normal 0.773033 0.634365 0
    outer loop
      vertex -43.8304 -20.8889 0
      vertex -43.6314 -21.1314 1.5
      vertex -43.6314 -21.1314 0
    endloop
  endfacet
  facet normal -0.290388 0.956909 0
    outer loop
      vertex -41.8877 -21.4782 0
      vertex -42.1879 -21.5693 1.5
      vertex -41.8877 -21.4782 1.5
    endloop
  endfacet
  facet normal -0.290388 0.956909 0
    outer loop
      vertex -42.1879 -21.5693 1.5
      vertex -41.8877 -21.4782 0
      vertex -42.1879 -21.5693 0
    endloop
  endfacet
  facet normal -0.881982 0.471283 0
    outer loop
      vertex -41.1696 -20.8889 0
      vertex -41.0218 -20.6123 1.5
      vertex -41.0218 -20.6123 0
    endloop
  endfacet
  facet normal -0.881982 0.471283 0
    outer loop
      vertex -41.0218 -20.6123 1.5
      vertex -41.1696 -20.8889 0
      vertex -41.1696 -20.8889 1.5
    endloop
  endfacet
  facet normal 0.956909 0.290388 0
    outer loop
      vertex -43.9782 -20.6123 1.5
      vertex -44.0693 -20.3121 0
      vertex -44.0693 -20.3121 1.5
    endloop
  endfacet
  facet normal 0.956909 0.290388 0
    outer loop
      vertex -44.0693 -20.3121 0
      vertex -43.9782 -20.6123 1.5
      vertex -43.9782 -20.6123 0
    endloop
  endfacet
  facet normal -0.956909 -0.290388 0
    outer loop
      vertex -40.9307 20.3121 0
      vertex -41.0218 20.6123 1.5
      vertex -41.0218 20.6123 0
    endloop
  endfacet
  facet normal -0.956909 -0.290388 0
    outer loop
      vertex -41.0218 20.6123 1.5
      vertex -40.9307 20.3121 0
      vertex -40.9307 20.3121 1.5
    endloop
  endfacet
  facet normal -0.471283 0.881982 0
    outer loop
      vertex -41.6111 18.6696 0
      vertex -41.8877 18.5218 1.5
      vertex -41.6111 18.6696 1.5
    endloop
  endfacet
  facet normal -0.471283 0.881982 0
    outer loop
      vertex -41.8877 18.5218 1.5
      vertex -41.6111 18.6696 0
      vertex -41.8877 18.5218 0
    endloop
  endfacet
  facet normal -0.290388 -0.956909 0
    outer loop
      vertex -42.1879 21.5693 0
      vertex -41.8877 21.4782 1.5
      vertex -42.1879 21.5693 1.5
    endloop
  endfacet
  facet normal -0.290388 -0.956909 -0
    outer loop
      vertex -41.8877 21.4782 1.5
      vertex -42.1879 21.5693 0
      vertex -41.8877 21.4782 0
    endloop
  endfacet
  facet normal -0.634365 -0.773033 0
    outer loop
      vertex -41.6111 21.3304 0
      vertex -41.3686 21.1314 1.5
      vertex -41.6111 21.3304 1.5
    endloop
  endfacet
  facet normal -0.634365 -0.773033 -0
    outer loop
      vertex -41.3686 21.1314 1.5
      vertex -41.6111 21.3304 0
      vertex -41.3686 21.1314 0
    endloop
  endfacet
  facet normal -0.995197 0.0978934 0
    outer loop
      vertex -40.9307 19.6879 0
      vertex -40.9 20 1.5
      vertex -40.9 20 0
    endloop
  endfacet
  facet normal -0.995197 0.0978934 0
    outer loop
      vertex -40.9 20 1.5
      vertex -40.9307 19.6879 0
      vertex -40.9307 19.6879 1.5
    endloop
  endfacet
  facet normal 0.634365 0.773033 -0
    outer loop
      vertex -43.3889 18.6696 0
      vertex -43.6314 18.8686 1.5
      vertex -43.3889 18.6696 1.5
    endloop
  endfacet
  facet normal 0.634365 0.773033 0
    outer loop
      vertex -43.6314 18.8686 1.5
      vertex -43.3889 18.6696 0
      vertex -43.6314 18.8686 0
    endloop
  endfacet
  facet normal -0.634365 0.773033 0
    outer loop
      vertex -41.3686 18.8686 0
      vertex -41.6111 18.6696 1.5
      vertex -41.3686 18.8686 1.5
    endloop
  endfacet
  facet normal -0.634365 0.773033 0
    outer loop
      vertex -41.6111 18.6696 1.5
      vertex -41.3686 18.8686 0
      vertex -41.6111 18.6696 0
    endloop
  endfacet
  facet normal -0.290388 0.956909 0
    outer loop
      vertex -41.8877 18.5218 0
      vertex -42.1879 18.4307 1.5
      vertex -41.8877 18.5218 1.5
    endloop
  endfacet
  facet normal -0.290388 0.956909 0
    outer loop
      vertex -42.1879 18.4307 1.5
      vertex -41.8877 18.5218 0
      vertex -42.1879 18.4307 0
    endloop
  endfacet
  facet normal -0.773033 0.634365 0
    outer loop
      vertex -41.3686 18.8686 0
      vertex -41.1696 19.1111 1.5
      vertex -41.1696 19.1111 0
    endloop
  endfacet
  facet normal -0.773033 0.634365 0
    outer loop
      vertex -41.1696 19.1111 1.5
      vertex -41.3686 18.8686 0
      vertex -41.3686 18.8686 1.5
    endloop
  endfacet
  facet normal 0.290388 0.956909 -0
    outer loop
      vertex -42.8121 18.4307 0
      vertex -43.1123 18.5218 1.5
      vertex -42.8121 18.4307 1.5
    endloop
  endfacet
  facet normal 0.290388 0.956909 0
    outer loop
      vertex -43.1123 18.5218 1.5
      vertex -42.8121 18.4307 0
      vertex -43.1123 18.5218 0
    endloop
  endfacet
  facet normal -0.995197 -0.0978934 0
    outer loop
      vertex -40.9 20 0
      vertex -40.9307 20.3121 1.5
      vertex -40.9307 20.3121 0
    endloop
  endfacet
  facet normal -0.995197 -0.0978934 0
    outer loop
      vertex -40.9307 20.3121 1.5
      vertex -40.9 20 0
      vertex -40.9 20 1.5
    endloop
  endfacet
  facet normal 0.0978934 -0.995197 0
    outer loop
      vertex -42.8121 21.5693 0
      vertex -42.5 21.6 1.5
      vertex -42.8121 21.5693 1.5
    endloop
  endfacet
  facet normal 0.0978934 -0.995197 0
    outer loop
      vertex -42.5 21.6 1.5
      vertex -42.8121 21.5693 0
      vertex -42.5 21.6 0
    endloop
  endfacet
  facet normal 0.290388 -0.956909 0
    outer loop
      vertex -43.1123 21.4782 0
      vertex -42.8121 21.5693 1.5
      vertex -43.1123 21.4782 1.5
    endloop
  endfacet
  facet normal 0.290388 -0.956909 0
    outer loop
      vertex -42.8121 21.5693 1.5
      vertex -43.1123 21.4782 0
      vertex -42.8121 21.5693 0
    endloop
  endfacet
  facet normal -0.881982 -0.471283 0
    outer loop
      vertex -41.0218 20.6123 0
      vertex -41.1696 20.8889 1.5
      vertex -41.1696 20.8889 0
    endloop
  endfacet
  facet normal -0.881982 -0.471283 0
    outer loop
      vertex -41.1696 20.8889 1.5
      vertex -41.0218 20.6123 0
      vertex -41.0218 20.6123 1.5
    endloop
  endfacet
  facet normal 0.634365 -0.773033 0
    outer loop
      vertex -43.6314 21.1314 0
      vertex -43.3889 21.3304 1.5
      vertex -43.6314 21.1314 1.5
    endloop
  endfacet
  facet normal 0.634365 -0.773033 0
    outer loop
      vertex -43.3889 21.3304 1.5
      vertex -43.6314 21.1314 0
      vertex -43.3889 21.3304 0
    endloop
  endfacet
  facet normal 0.995197 0.0978934 0
    outer loop
      vertex -44.0693 19.6879 1.5
      vertex -44.1 20 0
      vertex -44.1 20 1.5
    endloop
  endfacet
  facet normal 0.995197 0.0978934 0
    outer loop
      vertex -44.1 20 0
      vertex -44.0693 19.6879 1.5
      vertex -44.0693 19.6879 0
    endloop
  endfacet
  facet normal 0.881982 -0.471283 0
    outer loop
      vertex -43.9782 20.6123 1.5
      vertex -43.8304 20.8889 0
      vertex -43.8304 20.8889 1.5
    endloop
  endfacet
  facet normal 0.881982 -0.471283 0
    outer loop
      vertex -43.8304 20.8889 0
      vertex -43.9782 20.6123 1.5
      vertex -43.9782 20.6123 0
    endloop
  endfacet
  facet normal 0.0978934 0.995197 -0
    outer loop
      vertex -42.5 18.4 0
      vertex -42.8121 18.4307 1.5
      vertex -42.5 18.4 1.5
    endloop
  endfacet
  facet normal 0.0978934 0.995197 0
    outer loop
      vertex -42.8121 18.4307 1.5
      vertex -42.5 18.4 0
      vertex -42.8121 18.4307 0
    endloop
  endfacet
  facet normal 0.773033 0.634365 0
    outer loop
      vertex -43.6314 18.8686 1.5
      vertex -43.8304 19.1111 0
      vertex -43.8304 19.1111 1.5
    endloop
  endfacet
  facet normal 0.773033 0.634365 0
    outer loop
      vertex -43.8304 19.1111 0
      vertex -43.6314 18.8686 1.5
      vertex -43.6314 18.8686 0
    endloop
  endfacet
  facet normal 0.956909 0.290388 0
    outer loop
      vertex -43.9782 19.3877 1.5
      vertex -44.0693 19.6879 0
      vertex -44.0693 19.6879 1.5
    endloop
  endfacet
  facet normal 0.956909 0.290388 0
    outer loop
      vertex -44.0693 19.6879 0
      vertex -43.9782 19.3877 1.5
      vertex -43.9782 19.3877 0
    endloop
  endfacet
  facet normal -0.773033 -0.634365 0
    outer loop
      vertex -41.1696 20.8889 0
      vertex -41.3686 21.1314 1.5
      vertex -41.3686 21.1314 0
    endloop
  endfacet
  facet normal -0.773033 -0.634365 0
    outer loop
      vertex -41.3686 21.1314 1.5
      vertex -41.1696 20.8889 0
      vertex -41.1696 20.8889 1.5
    endloop
  endfacet
  facet normal -0.0978934 0.995197 0
    outer loop
      vertex -42.1879 18.4307 0
      vertex -42.5 18.4 1.5
      vertex -42.1879 18.4307 1.5
    endloop
  endfacet
  facet normal -0.0978934 0.995197 0
    outer loop
      vertex -42.5 18.4 1.5
      vertex -42.1879 18.4307 0
      vertex -42.5 18.4 0
    endloop
  endfacet
  facet normal 0.773033 -0.634365 0
    outer loop
      vertex -43.8304 20.8889 1.5
      vertex -43.6314 21.1314 0
      vertex -43.6314 21.1314 1.5
    endloop
  endfacet
  facet normal 0.773033 -0.634365 0
    outer loop
      vertex -43.6314 21.1314 0
      vertex -43.8304 20.8889 1.5
      vertex -43.8304 20.8889 0
    endloop
  endfacet
  facet normal -0.471283 -0.881982 0
    outer loop
      vertex -41.8877 21.4782 0
      vertex -41.6111 21.3304 1.5
      vertex -41.8877 21.4782 1.5
    endloop
  endfacet
  facet normal -0.471283 -0.881982 -0
    outer loop
      vertex -41.6111 21.3304 1.5
      vertex -41.8877 21.4782 0
      vertex -41.6111 21.3304 0
    endloop
  endfacet
  facet normal 0.471283 -0.881982 0
    outer loop
      vertex -43.3889 21.3304 0
      vertex -43.1123 21.4782 1.5
      vertex -43.3889 21.3304 1.5
    endloop
  endfacet
  facet normal 0.471283 -0.881982 0
    outer loop
      vertex -43.1123 21.4782 1.5
      vertex -43.3889 21.3304 0
      vertex -43.1123 21.4782 0
    endloop
  endfacet
  facet normal -0.881982 0.471283 0
    outer loop
      vertex -41.1696 19.1111 0
      vertex -41.0218 19.3877 1.5
      vertex -41.0218 19.3877 0
    endloop
  endfacet
  facet normal -0.881982 0.471283 0
    outer loop
      vertex -41.0218 19.3877 1.5
      vertex -41.1696 19.1111 0
      vertex -41.1696 19.1111 1.5
    endloop
  endfacet
  facet normal -0.956909 0.290388 0
    outer loop
      vertex -41.0218 19.3877 0
      vertex -40.9307 19.6879 1.5
      vertex -40.9307 19.6879 0
    endloop
  endfacet
  facet normal -0.956909 0.290388 0
    outer loop
      vertex -40.9307 19.6879 1.5
      vertex -41.0218 19.3877 0
      vertex -41.0218 19.3877 1.5
    endloop
  endfacet
  facet normal 0.881982 0.471283 0
    outer loop
      vertex -43.8304 19.1111 1.5
      vertex -43.9782 19.3877 0
      vertex -43.9782 19.3877 1.5
    endloop
  endfacet
  facet normal 0.881982 0.471283 0
    outer loop
      vertex -43.9782 19.3877 0
      vertex -43.8304 19.1111 1.5
      vertex -43.8304 19.1111 0
    endloop
  endfacet
  facet normal 0.471283 0.881982 -0
    outer loop
      vertex -43.1123 18.5218 0
      vertex -43.3889 18.6696 1.5
      vertex -43.1123 18.5218 1.5
    endloop
  endfacet
  facet normal 0.471283 0.881982 0
    outer loop
      vertex -43.3889 18.6696 1.5
      vertex -43.1123 18.5218 0
      vertex -43.3889 18.6696 0
    endloop
  endfacet
  facet normal 0.956909 -0.290388 0
    outer loop
      vertex -44.0693 20.3121 1.5
      vertex -43.9782 20.6123 0
      vertex -43.9782 20.6123 1.5
    endloop
  endfacet
  facet normal 0.956909 -0.290388 0
    outer loop
      vertex -43.9782 20.6123 0
      vertex -44.0693 20.3121 1.5
      vertex -44.0693 20.3121 0
    endloop
  endfacet
  facet normal -0.0978934 -0.995197 0
    outer loop
      vertex -42.5 21.6 0
      vertex -42.1879 21.5693 1.5
      vertex -42.5 21.6 1.5
    endloop
  endfacet
  facet normal -0.0978934 -0.995197 -0
    outer loop
      vertex -42.1879 21.5693 1.5
      vertex -42.5 21.6 0
      vertex -42.1879 21.5693 0
    endloop
  endfacet
  facet normal 0.995197 -0.0978934 0
    outer loop
      vertex -44.1 20 1.5
      vertex -44.0693 20.3121 0
      vertex -44.0693 20.3121 1.5
    endloop
  endfacet
  facet normal 0.995197 -0.0978934 0
    outer loop
      vertex -44.0693 20.3121 0
      vertex -44.1 20 1.5
      vertex -44.1 20 0
    endloop
  endfacet
  facet normal -0.881982 0.471283 0
    outer loop
      vertex 43.8304 -20.8889 0
      vertex 43.9782 -20.6123 1.5
      vertex 43.9782 -20.6123 0
    endloop
  endfacet
  facet normal -0.881982 0.471283 0
    outer loop
      vertex 43.9782 -20.6123 1.5
      vertex 43.8304 -20.8889 0
      vertex 43.8304 -20.8889 1.5
    endloop
  endfacet
  facet normal -0.290388 0.956909 0
    outer loop
      vertex 43.1123 -21.4782 0
      vertex 42.8121 -21.5693 1.5
      vertex 43.1123 -21.4782 1.5
    endloop
  endfacet
  facet normal -0.290388 0.956909 0
    outer loop
      vertex 42.8121 -21.5693 1.5
      vertex 43.1123 -21.4782 0
      vertex 42.8121 -21.5693 0
    endloop
  endfacet
  facet normal -0.0978934 0.995197 0
    outer loop
      vertex 42.8121 -21.5693 0
      vertex 42.5 -21.6 1.5
      vertex 42.8121 -21.5693 1.5
    endloop
  endfacet
  facet normal -0.0978934 0.995197 0
    outer loop
      vertex 42.5 -21.6 1.5
      vertex 42.8121 -21.5693 0
      vertex 42.5 -21.6 0
    endloop
  endfacet
  facet normal -0.634365 -0.773033 0
    outer loop
      vertex 43.3889 -18.6696 0
      vertex 43.6314 -18.8686 1.5
      vertex 43.3889 -18.6696 1.5
    endloop
  endfacet
  facet normal -0.634365 -0.773033 -0
    outer loop
      vertex 43.6314 -18.8686 1.5
      vertex 43.3889 -18.6696 0
      vertex 43.6314 -18.8686 0
    endloop
  endfacet
  facet normal 0.634365 0.773033 -0
    outer loop
      vertex 41.6111 -21.3304 0
      vertex 41.3686 -21.1314 1.5
      vertex 41.6111 -21.3304 1.5
    endloop
  endfacet
  facet normal 0.634365 0.773033 0
    outer loop
      vertex 41.3686 -21.1314 1.5
      vertex 41.6111 -21.3304 0
      vertex 41.3686 -21.1314 0
    endloop
  endfacet
  facet normal -0.995197 0.0978934 0
    outer loop
      vertex 44.0693 -20.3121 0
      vertex 44.1 -20 1.5
      vertex 44.1 -20 0
    endloop
  endfacet
  facet normal -0.995197 0.0978934 0
    outer loop
      vertex 44.1 -20 1.5
      vertex 44.0693 -20.3121 0
      vertex 44.0693 -20.3121 1.5
    endloop
  endfacet
  facet normal -0.634365 0.773033 0
    outer loop
      vertex 43.6314 -21.1314 0
      vertex 43.3889 -21.3304 1.5
      vertex 43.6314 -21.1314 1.5
    endloop
  endfacet
  facet normal -0.634365 0.773033 0
    outer loop
      vertex 43.3889 -21.3304 1.5
      vertex 43.6314 -21.1314 0
      vertex 43.3889 -21.3304 0
    endloop
  endfacet
  facet normal 0.995197 -0.0978934 0
    outer loop
      vertex 40.9 -20 1.5
      vertex 40.9307 -19.6879 0
      vertex 40.9307 -19.6879 1.5
    endloop
  endfacet
  facet normal 0.995197 -0.0978934 0
    outer loop
      vertex 40.9307 -19.6879 0
      vertex 40.9 -20 1.5
      vertex 40.9 -20 0
    endloop
  endfacet
  facet normal -0.881982 -0.471283 0
    outer loop
      vertex 43.9782 -19.3877 0
      vertex 43.8304 -19.1111 1.5
      vertex 43.8304 -19.1111 0
    endloop
  endfacet
  facet normal -0.881982 -0.471283 0
    outer loop
      vertex 43.8304 -19.1111 1.5
      vertex 43.9782 -19.3877 0
      vertex 43.9782 -19.3877 1.5
    endloop
  endfacet
  facet normal 0.290388 0.956909 -0
    outer loop
      vertex 42.1879 -21.5693 0
      vertex 41.8877 -21.4782 1.5
      vertex 42.1879 -21.5693 1.5
    endloop
  endfacet
  facet normal 0.290388 0.956909 0
    outer loop
      vertex 41.8877 -21.4782 1.5
      vertex 42.1879 -21.5693 0
      vertex 41.8877 -21.4782 0
    endloop
  endfacet
  facet normal 0.881982 0.471283 0
    outer loop
      vertex 41.1696 -20.8889 1.5
      vertex 41.0218 -20.6123 0
      vertex 41.0218 -20.6123 1.5
    endloop
  endfacet
  facet normal 0.881982 0.471283 0
    outer loop
      vertex 41.0218 -20.6123 0
      vertex 41.1696 -20.8889 1.5
      vertex 41.1696 -20.8889 0
    endloop
  endfacet
  facet normal 0.471283 0.881982 -0
    outer loop
      vertex 41.8877 -21.4782 0
      vertex 41.6111 -21.3304 1.5
      vertex 41.8877 -21.4782 1.5
    endloop
  endfacet
  facet normal 0.471283 0.881982 0
    outer loop
      vertex 41.6111 -21.3304 1.5
      vertex 41.8877 -21.4782 0
      vertex 41.6111 -21.3304 0
    endloop
  endfacet
  facet normal -0.773033 0.634365 0
    outer loop
      vertex 43.6314 -21.1314 0
      vertex 43.8304 -20.8889 1.5
      vertex 43.8304 -20.8889 0
    endloop
  endfacet
  facet normal -0.773033 0.634365 0
    outer loop
      vertex 43.8304 -20.8889 1.5
      vertex 43.6314 -21.1314 0
      vertex 43.6314 -21.1314 1.5
    endloop
  endfacet
  facet normal -0.995197 -0.0978934 0
    outer loop
      vertex 44.1 -20 0
      vertex 44.0693 -19.6879 1.5
      vertex 44.0693 -19.6879 0
    endloop
  endfacet
  facet normal -0.995197 -0.0978934 0
    outer loop
      vertex 44.0693 -19.6879 1.5
      vertex 44.1 -20 0
      vertex 44.1 -20 1.5
    endloop
  endfacet
  facet normal 0.773033 -0.634365 0
    outer loop
      vertex 41.1696 -19.1111 1.5
      vertex 41.3686 -18.8686 0
      vertex 41.3686 -18.8686 1.5
    endloop
  endfacet
  facet normal 0.773033 -0.634365 0
    outer loop
      vertex 41.3686 -18.8686 0
      vertex 41.1696 -19.1111 1.5
      vertex 41.1696 -19.1111 0
    endloop
  endfacet
  facet normal -0.471283 0.881982 0
    outer loop
      vertex 43.3889 -21.3304 0
      vertex 43.1123 -21.4782 1.5
      vertex 43.3889 -21.3304 1.5
    endloop
  endfacet
  facet normal -0.471283 0.881982 0
    outer loop
      vertex 43.1123 -21.4782 1.5
      vertex 43.3889 -21.3304 0
      vertex 43.1123 -21.4782 0
    endloop
  endfacet
  facet normal 0.634365 -0.773033 0
    outer loop
      vertex 41.3686 -18.8686 0
      vertex 41.6111 -18.6696 1.5
      vertex 41.3686 -18.8686 1.5
    endloop
  endfacet
  facet normal 0.634365 -0.773033 0
    outer loop
      vertex 41.6111 -18.6696 1.5
      vertex 41.3686 -18.8686 0
      vertex 41.6111 -18.6696 0
    endloop
  endfacet
  facet normal -0.956909 -0.290388 0
    outer loop
      vertex 44.0693 -19.6879 0
      vertex 43.9782 -19.3877 1.5
      vertex 43.9782 -19.3877 0
    endloop
  endfacet
  facet normal -0.956909 -0.290388 0
    outer loop
      vertex 43.9782 -19.3877 1.5
      vertex 44.0693 -19.6879 0
      vertex 44.0693 -19.6879 1.5
    endloop
  endfacet
  facet normal -0.290388 -0.956909 0
    outer loop
      vertex 42.8121 -18.4307 0
      vertex 43.1123 -18.5218 1.5
      vertex 42.8121 -18.4307 1.5
    endloop
  endfacet
  facet normal -0.290388 -0.956909 -0
    outer loop
      vertex 43.1123 -18.5218 1.5
      vertex 42.8121 -18.4307 0
      vertex 43.1123 -18.5218 0
    endloop
  endfacet
  facet normal 0.471283 -0.881982 0
    outer loop
      vertex 41.6111 -18.6696 0
      vertex 41.8877 -18.5218 1.5
      vertex 41.6111 -18.6696 1.5
    endloop
  endfacet
  facet normal 0.471283 -0.881982 0
    outer loop
      vertex 41.8877 -18.5218 1.5
      vertex 41.6111 -18.6696 0
      vertex 41.8877 -18.5218 0
    endloop
  endfacet
  facet normal -0.0978934 -0.995197 0
    outer loop
      vertex 42.5 -18.4 0
      vertex 42.8121 -18.4307 1.5
      vertex 42.5 -18.4 1.5
    endloop
  endfacet
  facet normal -0.0978934 -0.995197 -0
    outer loop
      vertex 42.8121 -18.4307 1.5
      vertex 42.5 -18.4 0
      vertex 42.8121 -18.4307 0
    endloop
  endfacet
  facet normal 0.290388 -0.956909 0
    outer loop
      vertex 41.8877 -18.5218 0
      vertex 42.1879 -18.4307 1.5
      vertex 41.8877 -18.5218 1.5
    endloop
  endfacet
  facet normal 0.290388 -0.956909 0
    outer loop
      vertex 42.1879 -18.4307 1.5
      vertex 41.8877 -18.5218 0
      vertex 42.1879 -18.4307 0
    endloop
  endfacet
  facet normal 0.773033 0.634365 0
    outer loop
      vertex 41.3686 -21.1314 1.5
      vertex 41.1696 -20.8889 0
      vertex 41.1696 -20.8889 1.5
    endloop
  endfacet
  facet normal 0.773033 0.634365 0
    outer loop
      vertex 41.1696 -20.8889 0
      vertex 41.3686 -21.1314 1.5
      vertex 41.3686 -21.1314 0
    endloop
  endfacet
  facet normal -0.773033 -0.634365 0
    outer loop
      vertex 43.8304 -19.1111 0
      vertex 43.6314 -18.8686 1.5
      vertex 43.6314 -18.8686 0
    endloop
  endfacet
  facet normal -0.773033 -0.634365 0
    outer loop
      vertex 43.6314 -18.8686 1.5
      vertex 43.8304 -19.1111 0
      vertex 43.8304 -19.1111 1.5
    endloop
  endfacet
  facet normal -0.471283 -0.881982 0
    outer loop
      vertex 43.1123 -18.5218 0
      vertex 43.3889 -18.6696 1.5
      vertex 43.1123 -18.5218 1.5
    endloop
  endfacet
  facet normal -0.471283 -0.881982 -0
    outer loop
      vertex 43.3889 -18.6696 1.5
      vertex 43.1123 -18.5218 0
      vertex 43.3889 -18.6696 0
    endloop
  endfacet
  facet normal -0.956909 0.290388 0
    outer loop
      vertex 43.9782 -20.6123 0
      vertex 44.0693 -20.3121 1.5
      vertex 44.0693 -20.3121 0
    endloop
  endfacet
  facet normal -0.956909 0.290388 0
    outer loop
      vertex 44.0693 -20.3121 1.5
      vertex 43.9782 -20.6123 0
      vertex 43.9782 -20.6123 1.5
    endloop
  endfacet
  facet normal 0.881982 -0.471283 0
    outer loop
      vertex 41.0218 -19.3877 1.5
      vertex 41.1696 -19.1111 0
      vertex 41.1696 -19.1111 1.5
    endloop
  endfacet
  facet normal 0.881982 -0.471283 0
    outer loop
      vertex 41.1696 -19.1111 0
      vertex 41.0218 -19.3877 1.5
      vertex 41.0218 -19.3877 0
    endloop
  endfacet
  facet normal 0.0978934 -0.995197 0
    outer loop
      vertex 42.1879 -18.4307 0
      vertex 42.5 -18.4 1.5
      vertex 42.1879 -18.4307 1.5
    endloop
  endfacet
  facet normal 0.0978934 -0.995197 0
    outer loop
      vertex 42.5 -18.4 1.5
      vertex 42.1879 -18.4307 0
      vertex 42.5 -18.4 0
    endloop
  endfacet
  facet normal 0.995197 0.0978934 0
    outer loop
      vertex 40.9307 -20.3121 1.5
      vertex 40.9 -20 0
      vertex 40.9 -20 1.5
    endloop
  endfacet
  facet normal 0.995197 0.0978934 0
    outer loop
      vertex 40.9 -20 0
      vertex 40.9307 -20.3121 1.5
      vertex 40.9307 -20.3121 0
    endloop
  endfacet
  facet normal 0.956909 0.290388 0
    outer loop
      vertex 41.0218 -20.6123 1.5
      vertex 40.9307 -20.3121 0
      vertex 40.9307 -20.3121 1.5
    endloop
  endfacet
  facet normal 0.956909 0.290388 0
    outer loop
      vertex 40.9307 -20.3121 0
      vertex 41.0218 -20.6123 1.5
      vertex 41.0218 -20.6123 0
    endloop
  endfacet
  facet normal 0.0978934 0.995197 -0
    outer loop
      vertex 42.5 -21.6 0
      vertex 42.1879 -21.5693 1.5
      vertex 42.5 -21.6 1.5
    endloop
  endfacet
  facet normal 0.0978934 0.995197 0
    outer loop
      vertex 42.1879 -21.5693 1.5
      vertex 42.5 -21.6 0
      vertex 42.1879 -21.5693 0
    endloop
  endfacet
  facet normal 0.956909 -0.290388 0
    outer loop
      vertex 40.9307 -19.6879 1.5
      vertex 41.0218 -19.3877 0
      vertex 41.0218 -19.3877 1.5
    endloop
  endfacet
  facet normal 0.956909 -0.290388 0
    outer loop
      vertex 41.0218 -19.3877 0
      vertex 40.9307 -19.6879 1.5
      vertex 40.9307 -19.6879 0
    endloop
  endfacet
  facet normal -0.956909 -0.290388 0
    outer loop
      vertex 44.0693 20.3121 0
      vertex 43.9782 20.6123 1.5
      vertex 43.9782 20.6123 0
    endloop
  endfacet
  facet normal -0.956909 -0.290388 0
    outer loop
      vertex 43.9782 20.6123 1.5
      vertex 44.0693 20.3121 0
      vertex 44.0693 20.3121 1.5
    endloop
  endfacet
  facet normal -0.471283 0.881982 0
    outer loop
      vertex 43.3889 18.6696 0
      vertex 43.1123 18.5218 1.5
      vertex 43.3889 18.6696 1.5
    endloop
  endfacet
  facet normal -0.471283 0.881982 0
    outer loop
      vertex 43.1123 18.5218 1.5
      vertex 43.3889 18.6696 0
      vertex 43.1123 18.5218 0
    endloop
  endfacet
  facet normal -0.290388 -0.956909 0
    outer loop
      vertex 42.8121 21.5693 0
      vertex 43.1123 21.4782 1.5
      vertex 42.8121 21.5693 1.5
    endloop
  endfacet
  facet normal -0.290388 -0.956909 -0
    outer loop
      vertex 43.1123 21.4782 1.5
      vertex 42.8121 21.5693 0
      vertex 43.1123 21.4782 0
    endloop
  endfacet
  facet normal -0.634365 -0.773033 0
    outer loop
      vertex 43.3889 21.3304 0
      vertex 43.6314 21.1314 1.5
      vertex 43.3889 21.3304 1.5
    endloop
  endfacet
  facet normal -0.634365 -0.773033 -0
    outer loop
      vertex 43.6314 21.1314 1.5
      vertex 43.3889 21.3304 0
      vertex 43.6314 21.1314 0
    endloop
  endfacet
  facet normal -0.995197 0.0978934 0
    outer loop
      vertex 44.0693 19.6879 0
      vertex 44.1 20 1.5
      vertex 44.1 20 0
    endloop
  endfacet
  facet normal -0.995197 0.0978934 0
    outer loop
      vertex 44.1 20 1.5
      vertex 44.0693 19.6879 0
      vertex 44.0693 19.6879 1.5
    endloop
  endfacet
  facet normal 0.634365 0.773033 -0
    outer loop
      vertex 41.6111 18.6696 0
      vertex 41.3686 18.8686 1.5
      vertex 41.6111 18.6696 1.5
    endloop
  endfacet
  facet normal 0.634365 0.773033 0
    outer loop
      vertex 41.3686 18.8686 1.5
      vertex 41.6111 18.6696 0
      vertex 41.3686 18.8686 0
    endloop
  endfacet
  facet normal -0.881982 -0.471283 0
    outer loop
      vertex 43.9782 20.6123 0
      vertex 43.8304 20.8889 1.5
      vertex 43.8304 20.8889 0
    endloop
  endfacet
  facet normal -0.881982 -0.471283 0
    outer loop
      vertex 43.8304 20.8889 1.5
      vertex 43.9782 20.6123 0
      vertex 43.9782 20.6123 1.5
    endloop
  endfacet
  facet normal -0.634365 0.773033 0
    outer loop
      vertex 43.6314 18.8686 0
      vertex 43.3889 18.6696 1.5
      vertex 43.6314 18.8686 1.5
    endloop
  endfacet
  facet normal -0.634365 0.773033 0
    outer loop
      vertex 43.3889 18.6696 1.5
      vertex 43.6314 18.8686 0
      vertex 43.3889 18.6696 0
    endloop
  endfacet
  facet normal -0.290388 0.956909 0
    outer loop
      vertex 43.1123 18.5218 0
      vertex 42.8121 18.4307 1.5
      vertex 43.1123 18.5218 1.5
    endloop
  endfacet
  facet normal -0.290388 0.956909 0
    outer loop
      vertex 42.8121 18.4307 1.5
      vertex 43.1123 18.5218 0
      vertex 42.8121 18.4307 0
    endloop
  endfacet
  facet normal -0.773033 0.634365 0
    outer loop
      vertex 43.6314 18.8686 0
      vertex 43.8304 19.1111 1.5
      vertex 43.8304 19.1111 0
    endloop
  endfacet
  facet normal -0.773033 0.634365 0
    outer loop
      vertex 43.8304 19.1111 1.5
      vertex 43.6314 18.8686 0
      vertex 43.6314 18.8686 1.5
    endloop
  endfacet
  facet normal 0.290388 0.956909 -0
    outer loop
      vertex 42.1879 18.4307 0
      vertex 41.8877 18.5218 1.5
      vertex 42.1879 18.4307 1.5
    endloop
  endfacet
  facet normal 0.290388 0.956909 0
    outer loop
      vertex 41.8877 18.5218 1.5
      vertex 42.1879 18.4307 0
      vertex 41.8877 18.5218 0
    endloop
  endfacet
  facet normal -0.995197 -0.0978934 0
    outer loop
      vertex 44.1 20 0
      vertex 44.0693 20.3121 1.5
      vertex 44.0693 20.3121 0
    endloop
  endfacet
  facet normal -0.995197 -0.0978934 0
    outer loop
      vertex 44.0693 20.3121 1.5
      vertex 44.1 20 0
      vertex 44.1 20 1.5
    endloop
  endfacet
  facet normal 0.0978934 -0.995197 0
    outer loop
      vertex 42.1879 21.5693 0
      vertex 42.5 21.6 1.5
      vertex 42.1879 21.5693 1.5
    endloop
  endfacet
  facet normal 0.0978934 -0.995197 0
    outer loop
      vertex 42.5 21.6 1.5
      vertex 42.1879 21.5693 0
      vertex 42.5 21.6 0
    endloop
  endfacet
  facet normal 0.634365 -0.773033 0
    outer loop
      vertex 41.3686 21.1314 0
      vertex 41.6111 21.3304 1.5
      vertex 41.3686 21.1314 1.5
    endloop
  endfacet
  facet normal 0.634365 -0.773033 0
    outer loop
      vertex 41.6111 21.3304 1.5
      vertex 41.3686 21.1314 0
      vertex 41.6111 21.3304 0
    endloop
  endfacet
  facet normal 0.995197 0.0978934 0
    outer loop
      vertex 40.9307 19.6879 1.5
      vertex 40.9 20 0
      vertex 40.9 20 1.5
    endloop
  endfacet
  facet normal 0.995197 0.0978934 0
    outer loop
      vertex 40.9 20 0
      vertex 40.9307 19.6879 1.5
      vertex 40.9307 19.6879 0
    endloop
  endfacet
  facet normal 0.881982 -0.471283 0
    outer loop
      vertex 41.0218 20.6123 1.5
      vertex 41.1696 20.8889 0
      vertex 41.1696 20.8889 1.5
    endloop
  endfacet
  facet normal 0.881982 -0.471283 0
    outer loop
      vertex 41.1696 20.8889 0
      vertex 41.0218 20.6123 1.5
      vertex 41.0218 20.6123 0
    endloop
  endfacet
  facet normal 0.0978934 0.995197 -0
    outer loop
      vertex 42.5 18.4 0
      vertex 42.1879 18.4307 1.5
      vertex 42.5 18.4 1.5
    endloop
  endfacet
  facet normal 0.0978934 0.995197 0
    outer loop
      vertex 42.1879 18.4307 1.5
      vertex 42.5 18.4 0
      vertex 42.1879 18.4307 0
    endloop
  endfacet
  facet normal 0.773033 0.634365 0
    outer loop
      vertex 41.3686 18.8686 1.5
      vertex 41.1696 19.1111 0
      vertex 41.1696 19.1111 1.5
    endloop
  endfacet
  facet normal 0.773033 0.634365 0
    outer loop
      vertex 41.1696 19.1111 0
      vertex 41.3686 18.8686 1.5
      vertex 41.3686 18.8686 0
    endloop
  endfacet
  facet normal -0.956909 0.290388 0
    outer loop
      vertex 43.9782 19.3877 0
      vertex 44.0693 19.6879 1.5
      vertex 44.0693 19.6879 0
    endloop
  endfacet
  facet normal -0.956909 0.290388 0
    outer loop
      vertex 44.0693 19.6879 1.5
      vertex 43.9782 19.3877 0
      vertex 43.9782 19.3877 1.5
    endloop
  endfacet
  facet normal 0.956909 0.290388 0
    outer loop
      vertex 41.0218 19.3877 1.5
      vertex 40.9307 19.6879 0
      vertex 40.9307 19.6879 1.5
    endloop
  endfacet
  facet normal 0.956909 0.290388 0
    outer loop
      vertex 40.9307 19.6879 0
      vertex 41.0218 19.3877 1.5
      vertex 41.0218 19.3877 0
    endloop
  endfacet
  facet normal -0.773033 -0.634365 0
    outer loop
      vertex 43.8304 20.8889 0
      vertex 43.6314 21.1314 1.5
      vertex 43.6314 21.1314 0
    endloop
  endfacet
  facet normal -0.773033 -0.634365 0
    outer loop
      vertex 43.6314 21.1314 1.5
      vertex 43.8304 20.8889 0
      vertex 43.8304 20.8889 1.5
    endloop
  endfacet
  facet normal -0.0978934 0.995197 0
    outer loop
      vertex 42.8121 18.4307 0
      vertex 42.5 18.4 1.5
      vertex 42.8121 18.4307 1.5
    endloop
  endfacet
  facet normal -0.0978934 0.995197 0
    outer loop
      vertex 42.5 18.4 1.5
      vertex 42.8121 18.4307 0
      vertex 42.5 18.4 0
    endloop
  endfacet
  facet normal 0.773033 -0.634365 0
    outer loop
      vertex 41.1696 20.8889 1.5
      vertex 41.3686 21.1314 0
      vertex 41.3686 21.1314 1.5
    endloop
  endfacet
  facet normal 0.773033 -0.634365 0
    outer loop
      vertex 41.3686 21.1314 0
      vertex 41.1696 20.8889 1.5
      vertex 41.1696 20.8889 0
    endloop
  endfacet
  facet normal 0.290388 -0.956909 0
    outer loop
      vertex 41.8877 21.4782 0
      vertex 42.1879 21.5693 1.5
      vertex 41.8877 21.4782 1.5
    endloop
  endfacet
  facet normal 0.290388 -0.956909 0
    outer loop
      vertex 42.1879 21.5693 1.5
      vertex 41.8877 21.4782 0
      vertex 42.1879 21.5693 0
    endloop
  endfacet
  facet normal -0.471283 -0.881982 0
    outer loop
      vertex 43.1123 21.4782 0
      vertex 43.3889 21.3304 1.5
      vertex 43.1123 21.4782 1.5
    endloop
  endfacet
  facet normal -0.471283 -0.881982 -0
    outer loop
      vertex 43.3889 21.3304 1.5
      vertex 43.1123 21.4782 0
      vertex 43.3889 21.3304 0
    endloop
  endfacet
  facet normal 0.471283 -0.881982 0
    outer loop
      vertex 41.6111 21.3304 0
      vertex 41.8877 21.4782 1.5
      vertex 41.6111 21.3304 1.5
    endloop
  endfacet
  facet normal 0.471283 -0.881982 0
    outer loop
      vertex 41.8877 21.4782 1.5
      vertex 41.6111 21.3304 0
      vertex 41.8877 21.4782 0
    endloop
  endfacet
  facet normal -0.881982 0.471283 0
    outer loop
      vertex 43.8304 19.1111 0
      vertex 43.9782 19.3877 1.5
      vertex 43.9782 19.3877 0
    endloop
  endfacet
  facet normal -0.881982 0.471283 0
    outer loop
      vertex 43.9782 19.3877 1.5
      vertex 43.8304 19.1111 0
      vertex 43.8304 19.1111 1.5
    endloop
  endfacet
  facet normal 0.881982 0.471283 0
    outer loop
      vertex 41.1696 19.1111 1.5
      vertex 41.0218 19.3877 0
      vertex 41.0218 19.3877 1.5
    endloop
  endfacet
  facet normal 0.881982 0.471283 0
    outer loop
      vertex 41.0218 19.3877 0
      vertex 41.1696 19.1111 1.5
      vertex 41.1696 19.1111 0
    endloop
  endfacet
  facet normal 0.471283 0.881982 -0
    outer loop
      vertex 41.8877 18.5218 0
      vertex 41.6111 18.6696 1.5
      vertex 41.8877 18.5218 1.5
    endloop
  endfacet
  facet normal 0.471283 0.881982 0
    outer loop
      vertex 41.6111 18.6696 1.5
      vertex 41.8877 18.5218 0
      vertex 41.6111 18.6696 0
    endloop
  endfacet
  facet normal 0.956909 -0.290388 0
    outer loop
      vertex 40.9307 20.3121 1.5
      vertex 41.0218 20.6123 0
      vertex 41.0218 20.6123 1.5
    endloop
  endfacet
  facet normal 0.956909 -0.290388 0
    outer loop
      vertex 41.0218 20.6123 0
      vertex 40.9307 20.3121 1.5
      vertex 40.9307 20.3121 0
    endloop
  endfacet
  facet normal -0.0978934 -0.995197 0
    outer loop
      vertex 42.5 21.6 0
      vertex 42.8121 21.5693 1.5
      vertex 42.5 21.6 1.5
    endloop
  endfacet
  facet normal -0.0978934 -0.995197 -0
    outer loop
      vertex 42.8121 21.5693 1.5
      vertex 42.5 21.6 0
      vertex 42.8121 21.5693 0
    endloop
  endfacet
  facet normal 0.995197 -0.0978934 0
    outer loop
      vertex 40.9 20 1.5
      vertex 40.9307 20.3121 0
      vertex 40.9307 20.3121 1.5
    endloop
  endfacet
  facet normal 0.995197 -0.0978934 0
    outer loop
      vertex 40.9307 20.3121 0
      vertex 40.9 20 1.5
      vertex 40.9 20 0
    endloop
  endfacet
  facet normal 1 -0 0
    outer loop
      vertex 39 -28 10
      vertex 39 28 1.5
      vertex 39 28 10
    endloop
  endfacet
  facet normal 1 0 0
    outer loop
      vertex 39 28 1.5
      vertex 39 -28 10
      vertex 39 -28 1.5
    endloop
  endfacet
  facet normal 0 0 1
    outer loop
      vertex 39 28 10
      vertex 30 15 10
      vertex 39 -28 10
    endloop
  endfacet
  facet normal 0 0 1
    outer loop
      vertex 39 28 10
      vertex -30 15 10
      vertex 30 15 10
    endloop
  endfacet
  facet normal 0 0 1
    outer loop
      vertex -30 15 10
      vertex -39 28 10
      vertex -30 -15 10
    endloop
  endfacet
  facet normal -0 0 1
    outer loop
      vertex -39 28 10
      vertex -30 15 10
      vertex 39 28 10
    endloop
  endfacet
  facet normal -0 0 1
    outer loop
      vertex 30 -15 10
      vertex 39 -28 10
      vertex 30 15 10
    endloop
  endfacet
  facet normal -0 0 1
    outer loop
      vertex -30 -15 10
      vertex 39 -28 10
      vertex 30 -15 10
    endloop
  endfacet
  facet normal 0 0 1
    outer loop
      vertex -30 -15 10
      vertex -39 -28 10
      vertex 39 -28 10
    endloop
  endfacet
  facet normal 0 0 1
    outer loop
      vertex -39 -28 10
      vertex -30 -15 10
      vertex -39 28 10
    endloop
  endfacet
  facet normal -1 0 0
    outer loop
      vertex -39 -28 1.5
      vertex -39 28 10
      vertex -39 28 1.5
    endloop
  endfacet
  facet normal -1 -0 0
    outer loop
      vertex -39 28 10
      vertex -39 -28 1.5
      vertex -39 -28 10
    endloop
  endfacet
  facet normal 0 1 -0
    outer loop
      vertex 49 28 0
      vertex 39 28 1.5
      vertex 49 28 1.5
    endloop
  endfacet
  facet normal 0 1 0
    outer loop
      vertex 39 28 1.5
      vertex 49 28 0
      vertex -39 28 1.5
    endloop
  endfacet
  facet normal 0 1 0
    outer loop
      vertex -49 28 0
      vertex -39 28 1.5
      vertex 49 28 0
    endloop
  endfacet
  facet normal 0 1 0
    outer loop
      vertex -39 28 1.5
      vertex -49 28 0
      vertex -49 28 1.5
    endloop
  endfacet
  facet normal 0 1 -0
    outer loop
      vertex 39 28 1.5
      vertex -39 28 10
      vertex 39 28 10
    endloop
  endfacet
  facet normal 0 1 0
    outer loop
      vertex -39 28 10
      vertex 39 28 1.5
      vertex -39 28 1.5
    endloop
  endfacet
  facet normal 0 -1 0
    outer loop
      vertex -49 -28 0
      vertex -39 -28 1.5
      vertex -49 -28 1.5
    endloop
  endfacet
  facet normal 0 -1 -0
    outer loop
      vertex -39 -28 1.5
      vertex -49 -28 0
      vertex 39 -28 1.5
    endloop
  endfacet
  facet normal 0 -1 0
    outer loop
      vertex 49 -28 0
      vertex 39 -28 1.5
      vertex -49 -28 0
    endloop
  endfacet
  facet normal 0 -1 0
    outer loop
      vertex 39 -28 1.5
      vertex 49 -28 0
      vertex 49 -28 1.5
    endloop
  endfacet
  facet normal 0 -1 0
    outer loop
      vertex -39 -28 1.5
      vertex 39 -28 10
      vertex -39 -28 10
    endloop
  endfacet
  facet normal 0 -1 -0
    outer loop
      vertex 39 -28 10
      vertex -39 -28 1.5
      vertex 39 -28 1.5
    endloop
  endfacet
  facet normal 1 -0 0
    outer loop
      vertex 49 -28 1.5
      vertex 49 28 0
      vertex 49 28 1.5
    endloop
  endfacet
  facet normal 1 0 0
    outer loop
      vertex 49 28 0
      vertex 49 -28 1.5
      vertex 49 -28 0
    endloop
  endfacet
  facet normal -0 0 1
    outer loop
      vertex -40.9307 -19.6879 1.5
      vertex -39 -28 1.5
      vertex -40.9307 19.6879 1.5
    endloop
  endfacet
  facet normal 0 0 1
    outer loop
      vertex -39 -28 1.5
      vertex -40.9307 -19.6879 1.5
      vertex -40.9 -20 1.5
    endloop
  endfacet
  facet normal -0 0 1
    outer loop
      vertex -41.0218 19.3877 1.5
      vertex -40.9307 -19.6879 1.5
      vertex -40.9307 19.6879 1.5
    endloop
  endfacet
  facet normal 0 0 1
    outer loop
      vertex -41.0218 19.3877 1.5
      vertex -41.0218 -19.3877 1.5
      vertex -40.9307 -19.6879 1.5
    endloop
  endfacet
  facet normal -0 0 1
    outer loop
      vertex -41.1696 19.1111 1.5
      vertex -41.0218 -19.3877 1.5
      vertex -41.0218 19.3877 1.5
    endloop
  endfacet
  facet normal 0 0 1
    outer loop
      vertex -41.1696 19.1111 1.5
      vertex -41.1696 -19.1111 1.5
      vertex -41.0218 -19.3877 1.5
    endloop
  endfacet
  facet normal -0 0 1
    outer loop
      vertex -41.3686 18.8686 1.5
      vertex -41.1696 -19.1111 1.5
      vertex -41.1696 19.1111 1.5
    endloop
  endfacet
  facet normal 0 0 1
    outer loop
      vertex -41.3686 18.8686 1.5
      vertex -41.3686 -18.8686 1.5
      vertex -41.1696 -19.1111 1.5
    endloop
  endfacet
  facet normal -0 0 1
    outer loop
      vertex -41.6111 18.6696 1.5
      vertex -41.3686 -18.8686 1.5
      vertex -41.3686 18.8686 1.5
    endloop
  endfacet
  facet normal 0 0 1
    outer loop
      vertex -41.6111 18.6696 1.5
      vertex -41.6111 -18.6696 1.5
      vertex -41.3686 -18.8686 1.5
    endloop
  endfacet
  facet normal -0 0 1
    outer loop
      vertex -41.8877 18.5218 1.5
      vertex -41.6111 -18.6696 1.5
      vertex -41.6111 18.6696 1.5
    endloop
  endfacet
  facet normal 0 0 1
    outer loop
      vertex -41.8877 18.5218 1.5
      vertex -41.8877 -18.5218 1.5
      vertex -41.6111 -18.6696 1.5
    endloop
  endfacet
  facet normal -0 0 1
    outer loop
      vertex -42.1879 18.4307 1.5
      vertex -41.8877 -18.5218 1.5
      vertex -41.8877 18.5218 1.5
    endloop
  endfacet
  facet normal 0 0 1
    outer loop
      vertex -42.1879 18.4307 1.5
      vertex -42.1879 -18.4307 1.5
      vertex -41.8877 -18.5218 1.5
    endloop
  endfacet
  facet normal -0 0 1
    outer loop
      vertex -42.5 18.4 1.5
      vertex -42.1879 -18.4307 1.5
      vertex -42.1879 18.4307 1.5
    endloop
  endfacet
  facet normal 0 0 1
    outer loop
      vertex -42.5 18.4 1.5
      vertex -42.5 -18.4 1.5
      vertex -42.1879 -18.4307 1.5
    endloop
  endfacet
  facet normal 0 0 1
    outer loop
      vertex -42.8121 18.4307 1.5
      vertex -42.5 -18.4 1.5
      vertex -42.5 18.4 1.5
    endloop
  endfacet
  facet normal 0 0 1
    outer loop
      vertex -42.8121 18.4307 1.5
      vertex -42.8121 -18.4307 1.5
      vertex -42.5 -18.4 1.5
    endloop
  endfacet
  facet normal 0 0 1
    outer loop
      vertex -43.1123 18.5218 1.5
      vertex -42.8121 -18.4307 1.5
      vertex -42.8121 18.4307 1.5
    endloop
  endfacet
  facet normal 0 0 1
    outer loop
      vertex -43.1123 18.5218 1.5
      vertex -43.1123 -18.5218 1.5
      vertex -42.8121 -18.4307 1.5
    endloop
  endfacet
  facet normal 0 0 1
    outer loop
      vertex -43.3889 18.6696 1.5
      vertex -43.1123 -18.5218 1.5
      vertex -43.1123 18.5218 1.5
    endloop
  endfacet
  facet normal 0 0 1
    outer loop
      vertex -43.3889 18.6696 1.5
      vertex -43.3889 -18.6696 1.5
      vertex -43.1123 -18.5218 1.5
    endloop
  endfacet
  facet normal 0 0 1
    outer loop
      vertex -43.6314 18.8686 1.5
      vertex -43.3889 -18.6696 1.5
      vertex -43.3889 18.6696 1.5
    endloop
  endfacet
  facet normal 0 0 1
    outer loop
      vertex -43.6314 18.8686 1.5
      vertex -43.6314 -18.8686 1.5
      vertex -43.3889 -18.6696 1.5
    endloop
  endfacet
  facet normal 0 0 1
    outer loop
      vertex -43.8304 19.1111 1.5
      vertex -43.6314 -18.8686 1.5
      vertex -43.6314 18.8686 1.5
    endloop
  endfacet
  facet normal 0 0 1
    outer loop
      vertex -43.8304 19.1111 1.5
      vertex -43.8304 -19.1111 1.5
      vertex -43.6314 -18.8686 1.5
    endloop
  endfacet
  facet normal 0 0 1
    outer loop
      vertex -43.9782 19.3877 1.5
      vertex -43.8304 -19.1111 1.5
      vertex -43.8304 19.1111 1.5
    endloop
  endfacet
  facet normal 0 0 1
    outer loop
      vertex -43.9782 19.3877 1.5
      vertex -43.9782 -19.3877 1.5
      vertex -43.8304 -19.1111 1.5
    endloop
  endfacet
  facet normal 0 0 1
    outer loop
      vertex -49 28 1.5
      vertex -43.9782 19.3877 1.5
      vertex -44.0693 19.6879 1.5
    endloop
  endfacet
  facet normal 0 0 1
    outer loop
      vertex -43.9782 19.3877 1.5
      vertex -49 28 1.5
      vertex -43.9782 -19.3877 1.5
    endloop
  endfacet
  facet normal 0 0 1
    outer loop
      vertex -49 28 1.5
      vertex -44.0693 19.6879 1.5
      vertex -44.1 20 1.5
    endloop
  endfacet
  facet normal 0 0 1
    outer loop
      vertex -49 -28 1.5
      vertex -43.9782 -19.3877 1.5
      vertex -49 28 1.5
    endloop
  endfacet
  facet normal 0 0 1
    outer loop
      vertex -40.9307 19.6879 1.5
      vertex -39 28 1.5
      vertex -40.9 20 1.5
    endloop
  endfacet
  facet normal 0 0 1
    outer loop
      vertex -39 28 1.5
      vertex -40.9307 20.3121 1.5
      vertex -40.9 20 1.5
    endloop
  endfacet
  facet normal 0 0 1
    outer loop
      vertex -39 28 1.5
      vertex -41.0218 20.6123 1.5
      vertex -40.9307 20.3121 1.5
    endloop
  endfacet
  facet normal 0 0 1
    outer loop
      vertex -39 28 1.5
      vertex -41.1696 20.8889 1.5
      vertex -41.0218 20.6123 1.5
    endloop
  endfacet
  facet normal 0 0 1
    outer loop
      vertex -39 28 1.5
      vertex -41.3686 21.1314 1.5
      vertex -41.1696 20.8889 1.5
    endloop
  endfacet
  facet normal 0 0 1
    outer loop
      vertex -39 28 1.5
      vertex -41.6111 21.3304 1.5
      vertex -41.3686 21.1314 1.5
    endloop
  endfacet
  facet normal 0 0 1
    outer loop
      vertex -39 28 1.5
      vertex -41.8877 21.4782 1.5
      vertex -41.6111 21.3304 1.5
    endloop
  endfacet
  facet normal 0 0 1
    outer loop
      vertex -39 28 1.5
      vertex -42.1879 21.5693 1.5
      vertex -41.8877 21.4782 1.5
    endloop
  endfacet
  facet normal 0 0 1
    outer loop
      vertex -39 28 1.5
      vertex -42.5 21.6 1.5
      vertex -42.1879 21.5693 1.5
    endloop
  endfacet
  facet normal 0 0 1
    outer loop
      vertex -39 28 1.5
      vertex -42.8121 21.5693 1.5
      vertex -42.5 21.6 1.5
    endloop
  endfacet
  facet normal -0 0 1
    outer loop
      vertex -49 28 1.5
      vertex -42.8121 21.5693 1.5
      vertex -39 28 1.5
    endloop
  endfacet
  facet normal 0 0 1
    outer loop
      vertex -42.8121 21.5693 1.5
      vertex -49 28 1.5
      vertex -43.1123 21.4782 1.5
    endloop
  endfacet
  facet normal 0 0 1
    outer loop
      vertex -43.1123 21.4782 1.5
      vertex -49 28 1.5
      vertex -43.3889 21.3304 1.5
    endloop
  endfacet
  facet normal 0 0 1
    outer loop
      vertex -43.3889 21.3304 1.5
      vertex -49 28 1.5
      vertex -43.6314 21.1314 1.5
    endloop
  endfacet
  facet normal 0 0 1
    outer loop
      vertex -43.9782 -19.3877 1.5
      vertex -49 -28 1.5
      vertex -44.0693 -19.6879 1.5
    endloop
  endfacet
  facet normal 0 0 1
    outer loop
      vertex -44.0693 20.3121 1.5
      vertex -49 28 1.5
      vertex -44.1 20 1.5
    endloop
  endfacet
  facet normal 0 0 1
    outer loop
      vertex -43.9782 20.6123 1.5
      vertex -49 28 1.5
      vertex -44.0693 20.3121 1.5
    endloop
  endfacet
  facet normal 0 0 1
    outer loop
      vertex -43.8304 20.8889 1.5
      vertex -49 28 1.5
      vertex -43.9782 20.6123 1.5
    endloop
  endfacet
  facet normal 0 0 1
    outer loop
      vertex -43.6314 21.1314 1.5
      vertex -49 28 1.5
      vertex -43.8304 20.8889 1.5
    endloop
  endfacet
  facet normal 0 0 1
    outer loop
      vertex -39 28 1.5
      vertex -40.9307 19.6879 1.5
      vertex -39 -28 1.5
    endloop
  endfacet
  facet normal -0 0 1
    outer loop
      vertex -40.9307 -20.3121 1.5
      vertex -39 -28 1.5
      vertex -40.9 -20 1.5
    endloop
  endfacet
  facet normal -0 0 1
    outer loop
      vertex -41.0218 -20.6123 1.5
      vertex -39 -28 1.5
      vertex -40.9307 -20.3121 1.5
    endloop
  endfacet
  facet normal -0 0 1
    outer loop
      vertex -41.1696 -20.8889 1.5
      vertex -39 -28 1.5
      vertex -41.0218 -20.6123 1.5
    endloop
  endfacet
  facet normal -0 0 1
    outer loop
      vertex -41.3686 -21.1314 1.5
      vertex -39 -28 1.5
      vertex -41.1696 -20.8889 1.5
    endloop
  endfacet
  facet normal -0 0 1
    outer loop
      vertex -41.6111 -21.3304 1.5
      vertex -39 -28 1.5
      vertex -41.3686 -21.1314 1.5
    endloop
  endfacet
  facet normal -0 0 1
    outer loop
      vertex -41.8877 -21.4782 1.5
      vertex -39 -28 1.5
      vertex -41.6111 -21.3304 1.5
    endloop
  endfacet
  facet normal -0 0 1
    outer loop
      vertex -42.1879 -21.5693 1.5
      vertex -39 -28 1.5
      vertex -41.8877 -21.4782 1.5
    endloop
  endfacet
  facet normal -0 0 1
    outer loop
      vertex -42.5 -21.6 1.5
      vertex -39 -28 1.5
      vertex -42.1879 -21.5693 1.5
    endloop
  endfacet
  facet normal 0 0 1
    outer loop
      vertex -42.8121 -21.5693 1.5
      vertex -39 -28 1.5
      vertex -42.5 -21.6 1.5
    endloop
  endfacet
  facet normal 0 0 1
    outer loop
      vertex -49 -28 1.5
      vertex -42.8121 -21.5693 1.5
      vertex -43.1123 -21.4782 1.5
    endloop
  endfacet
  facet normal 0 0 1
    outer loop
      vertex -49 -28 1.5
      vertex -43.1123 -21.4782 1.5
      vertex -43.3889 -21.3304 1.5
    endloop
  endfacet
  facet normal 0 0 1
    outer loop
      vertex -49 -28 1.5
      vertex -43.3889 -21.3304 1.5
      vertex -43.6314 -21.1314 1.5
    endloop
  endfacet
  facet normal 0 0 1
    outer loop
      vertex -49 -28 1.5
      vertex -43.6314 -21.1314 1.5
      vertex -43.8304 -20.8889 1.5
    endloop
  endfacet
  facet normal 0 0 1
    outer loop
      vertex -44.0693 -19.6879 1.5
      vertex -49 -28 1.5
      vertex -44.1 -20 1.5
    endloop
  endfacet
  facet normal 0 0 1
    outer loop
      vertex -42.8121 -21.5693 1.5
      vertex -49 -28 1.5
      vertex -39 -28 1.5
    endloop
  endfacet
  facet normal 0 0 1
    outer loop
      vertex -43.9782 -20.6123 1.5
      vertex -49 -28 1.5
      vertex -43.8304 -20.8889 1.5
    endloop
  endfacet
  facet normal 0 0 1
    outer loop
      vertex -44.0693 -20.3121 1.5
      vertex -49 -28 1.5
      vertex -43.9782 -20.6123 1.5
    endloop
  endfacet
  facet normal 0 0 1
    outer loop
      vertex -44.1 -20 1.5
      vertex -49 -28 1.5
      vertex -44.0693 -20.3121 1.5
    endloop
  endfacet
  facet normal 0 0 1
    outer loop
      vertex 49 28 1.5
      vertex 43.9782 19.3877 1.5
      vertex 49 -28 1.5
    endloop
  endfacet
  facet normal 0 0 1
    outer loop
      vertex 49 -28 1.5
      vertex 44.0693 -19.6879 1.5
      vertex 44.1 -20 1.5
    endloop
  endfacet
  facet normal -0 0 1
    outer loop
      vertex 43.9782 -19.3877 1.5
      vertex 49 -28 1.5
      vertex 43.9782 19.3877 1.5
    endloop
  endfacet
  facet normal 0 0 1
    outer loop
      vertex 49 -28 1.5
      vertex 43.9782 -19.3877 1.5
      vertex 44.0693 -19.6879 1.5
    endloop
  endfacet
  facet normal -0 0 1
    outer loop
      vertex 43.8304 19.1111 1.5
      vertex 43.9782 -19.3877 1.5
      vertex 43.9782 19.3877 1.5
    endloop
  endfacet
  facet normal 0 0 1
    outer loop
      vertex 43.8304 19.1111 1.5
      vertex 43.8304 -19.1111 1.5
      vertex 43.9782 -19.3877 1.5
    endloop
  endfacet
  facet normal -0 0 1
    outer loop
      vertex 43.6314 18.8686 1.5
      vertex 43.8304 -19.1111 1.5
      vertex 43.8304 19.1111 1.5
    endloop
  endfacet
  facet normal 0 0 1
    outer loop
      vertex 43.6314 18.8686 1.5
      vertex 43.6314 -18.8686 1.5
      vertex 43.8304 -19.1111 1.5
    endloop
  endfacet
  facet normal -0 0 1
    outer loop
      vertex 43.3889 18.6696 1.5
      vertex 43.6314 -18.8686 1.5
      vertex 43.6314 18.8686 1.5
    endloop
  endfacet
  facet normal 0 0 1
    outer loop
      vertex 43.3889 18.6696 1.5
      vertex 43.3889 -18.6696 1.5
      vertex 43.6314 -18.8686 1.5
    endloop
  endfacet
  facet normal -0 0 1
    outer loop
      vertex 43.1123 18.5218 1.5
      vertex 43.3889 -18.6696 1.5
      vertex 43.3889 18.6696 1.5
    endloop
  endfacet
  facet normal 0 0 1
    outer loop
      vertex 43.1123 18.5218 1.5
      vertex 43.1123 -18.5218 1.5
      vertex 43.3889 -18.6696 1.5
    endloop
  endfacet
  facet normal -0 0 1
    outer loop
      vertex 42.8121 18.4307 1.5
      vertex 43.1123 -18.5218 1.5
      vertex 43.1123 18.5218 1.5
    endloop
  endfacet
  facet normal 0 0 1
    outer loop
      vertex 42.8121 18.4307 1.5
      vertex 42.8121 -18.4307 1.5
      vertex 43.1123 -18.5218 1.5
    endloop
  endfacet
  facet normal -0 0 1
    outer loop
      vertex 42.5 18.4 1.5
      vertex 42.8121 -18.4307 1.5
      vertex 42.8121 18.4307 1.5
    endloop
  endfacet
  facet normal 0 0 1
    outer loop
      vertex 42.5 18.4 1.5
      vertex 42.5 -18.4 1.5
      vertex 42.8121 -18.4307 1.5
    endloop
  endfacet
  facet normal 0 0 1
    outer loop
      vertex 42.1879 18.4307 1.5
      vertex 42.5 -18.4 1.5
      vertex 42.5 18.4 1.5
    endloop
  endfacet
  facet normal 0 0 1
    outer loop
      vertex 42.1879 18.4307 1.5
      vertex 42.1879 -18.4307 1.5
      vertex 42.5 -18.4 1.5
    endloop
  endfacet
  facet normal 0 0 1
    outer loop
      vertex 41.8877 18.5218 1.5
      vertex 42.1879 -18.4307 1.5
      vertex 42.1879 18.4307 1.5
    endloop
  endfacet
  facet normal 0 0 1
    outer loop
      vertex 41.8877 18.5218 1.5
      vertex 41.8877 -18.5218 1.5
      vertex 42.1879 -18.4307 1.5
    endloop
  endfacet
  facet normal 0 0 1
    outer loop
      vertex 41.6111 18.6696 1.5
      vertex 41.8877 -18.5218 1.5
      vertex 41.8877 18.5218 1.5
    endloop
  endfacet
  facet normal 0 0 1
    outer loop
      vertex 41.6111 18.6696 1.5
      vertex 41.6111 -18.6696 1.5
      vertex 41.8877 -18.5218 1.5
    endloop
  endfacet
  facet normal 0 0 1
    outer loop
      vertex 41.3686 18.8686 1.5
      vertex 41.6111 -18.6696 1.5
      vertex 41.6111 18.6696 1.5
    endloop
  endfacet
  facet normal 0 0 1
    outer loop
      vertex 41.3686 18.8686 1.5
      vertex 41.3686 -18.8686 1.5
      vertex 41.6111 -18.6696 1.5
    endloop
  endfacet
  facet normal 0 0 1
    outer loop
      vertex 41.1696 19.1111 1.5
      vertex 41.3686 -18.8686 1.5
      vertex 41.3686 18.8686 1.5
    endloop
  endfacet
  facet normal 0 0 1
    outer loop
      vertex 41.1696 19.1111 1.5
      vertex 41.1696 -19.1111 1.5
      vertex 41.3686 -18.8686 1.5
    endloop
  endfacet
  facet normal 0 0 1
    outer loop
      vertex 41.0218 19.3877 1.5
      vertex 41.1696 -19.1111 1.5
      vertex 41.1696 19.1111 1.5
    endloop
  endfacet
  facet normal 0 0 1
    outer loop
      vertex 41.0218 19.3877 1.5
      vertex 41.0218 -19.3877 1.5
      vertex 41.1696 -19.1111 1.5
    endloop
  endfacet
  facet normal 0 0 1
    outer loop
      vertex 40.9307 19.6879 1.5
      vertex 41.0218 -19.3877 1.5
      vertex 41.0218 19.3877 1.5
    endloop
  endfacet
  facet normal 0 0 1
    outer loop
      vertex 40.9307 19.6879 1.5
      vertex 40.9307 -19.6879 1.5
      vertex 41.0218 -19.3877 1.5
    endloop
  endfacet
  facet normal 0 0 1
    outer loop
      vertex 39 28 1.5
      vertex 40.9307 19.6879 1.5
      vertex 40.9 20 1.5
    endloop
  endfacet
  facet normal 0 0 1
    outer loop
      vertex 40.9307 19.6879 1.5
      vertex 39 28 1.5
      vertex 40.9307 -19.6879 1.5
    endloop
  endfacet
  facet normal 0 0 1
    outer loop
      vertex 44.0693 19.6879 1.5
      vertex 49 28 1.5
      vertex 44.1 20 1.5
    endloop
  endfacet
  facet normal 0 0 1
    outer loop
      vertex 49 28 1.5
      vertex 44.0693 20.3121 1.5
      vertex 44.1 20 1.5
    endloop
  endfacet
  facet normal 0 0 1
    outer loop
      vertex 49 28 1.5
      vertex 43.9782 20.6123 1.5
      vertex 44.0693 20.3121 1.5
    endloop
  endfacet
  facet normal 0 0 1
    outer loop
      vertex 49 28 1.5
      vertex 43.8304 20.8889 1.5
      vertex 43.9782 20.6123 1.5
    endloop
  endfacet
  facet normal 0 0 1
    outer loop
      vertex 49 28 1.5
      vertex 43.6314 21.1314 1.5
      vertex 43.8304 20.8889 1.5
    endloop
  endfacet
  facet normal 0 0 1
    outer loop
      vertex 49 28 1.5
      vertex 43.3889 21.3304 1.5
      vertex 43.6314 21.1314 1.5
    endloop
  endfacet
  facet normal 0 0 1
    outer loop
      vertex 49 28 1.5
      vertex 43.1123 21.4782 1.5
      vertex 43.3889 21.3304 1.5
    endloop
  endfacet
  facet normal 0 0 1
    outer loop
      vertex 49 28 1.5
      vertex 42.8121 21.5693 1.5
      vertex 43.1123 21.4782 1.5
    endloop
  endfacet
  facet normal -0 0 1
    outer loop
      vertex 39 28 1.5
      vertex 42.8121 21.5693 1.5
      vertex 49 28 1.5
    endloop
  endfacet
  facet normal 0 0 1
    outer loop
      vertex 42.8121 21.5693 1.5
      vertex 39 28 1.5
      vertex 42.5 21.6 1.5
    endloop
  endfacet
  facet normal 0 0 1
    outer loop
      vertex 42.5 21.6 1.5
      vertex 39 28 1.5
      vertex 42.1879 21.5693 1.5
    endloop
  endfacet
  facet normal 0 0 1
    outer loop
      vertex 42.1879 21.5693 1.5
      vertex 39 28 1.5
      vertex 41.8877 21.4782 1.5
    endloop
  endfacet
  facet normal 0 0 1
    outer loop
      vertex 41.8877 21.4782 1.5
      vertex 39 28 1.5
      vertex 41.6111 21.3304 1.5
    endloop
  endfacet
  facet normal 0 0 1
    outer loop
      vertex 39 -28 1.5
      vertex 40.9307 -19.6879 1.5
      vertex 39 28 1.5
    endloop
  endfacet
  facet normal 0 0 1
    outer loop
      vertex 40.9307 20.3121 1.5
      vertex 39 28 1.5
      vertex 40.9 20 1.5
    endloop
  endfacet
  facet normal 0 0 1
    outer loop
      vertex 41.0218 20.6123 1.5
      vertex 39 28 1.5
      vertex 40.9307 20.3121 1.5
    endloop
  endfacet
  facet normal 0 0 1
    outer loop
      vertex 41.1696 20.8889 1.5
      vertex 39 28 1.5
      vertex 41.0218 20.6123 1.5
    endloop
  endfacet
  facet normal 0 0 1
    outer loop
      vertex 41.3686 21.1314 1.5
      vertex 39 28 1.5
      vertex 41.1696 20.8889 1.5
    endloop
  endfacet
  facet normal 0 0 1
    outer loop
      vertex 41.6111 21.3304 1.5
      vertex 39 28 1.5
      vertex 41.3686 21.1314 1.5
    endloop
  endfacet
  facet normal 0 0 1
    outer loop
      vertex 43.9782 19.3877 1.5
      vertex 49 28 1.5
      vertex 44.0693 19.6879 1.5
    endloop
  endfacet
  facet normal -0 0 1
    outer loop
      vertex 44.0693 -20.3121 1.5
      vertex 49 -28 1.5
      vertex 44.1 -20 1.5
    endloop
  endfacet
  facet normal -0 0 1
    outer loop
      vertex 43.9782 -20.6123 1.5
      vertex 49 -28 1.5
      vertex 44.0693 -20.3121 1.5
    endloop
  endfacet
  facet normal -0 0 1
    outer loop
      vertex 43.8304 -20.8889 1.5
      vertex 49 -28 1.5
      vertex 43.9782 -20.6123 1.5
    endloop
  endfacet
  facet normal -0 0 1
    outer loop
      vertex 43.6314 -21.1314 1.5
      vertex 49 -28 1.5
      vertex 43.8304 -20.8889 1.5
    endloop
  endfacet
  facet normal -0 0 1
    outer loop
      vertex 43.3889 -21.3304 1.5
      vertex 49 -28 1.5
      vertex 43.6314 -21.1314 1.5
    endloop
  endfacet
  facet normal -0 0 1
    outer loop
      vertex 43.1123 -21.4782 1.5
      vertex 49 -28 1.5
      vertex 43.3889 -21.3304 1.5
    endloop
  endfacet
  facet normal -0 0 1
    outer loop
      vertex 42.8121 -21.5693 1.5
      vertex 49 -28 1.5
      vertex 43.1123 -21.4782 1.5
    endloop
  endfacet
  facet normal 0 0 1
    outer loop
      vertex 39 -28 1.5
      vertex 42.8121 -21.5693 1.5
      vertex 42.5 -21.6 1.5
    endloop
  endfacet
  facet normal 0 0 1
    outer loop
      vertex 39 -28 1.5
      vertex 42.5 -21.6 1.5
      vertex 42.1879 -21.5693 1.5
    endloop
  endfacet
  facet normal 0 0 1
    outer loop
      vertex 39 -28 1.5
      vertex 42.1879 -21.5693 1.5
      vertex 41.8877 -21.4782 1.5
    endloop
  endfacet
  facet normal 0 0 1
    outer loop
      vertex 39 -28 1.5
      vertex 41.8877 -21.4782 1.5
      vertex 41.6111 -21.3304 1.5
    endloop
  endfacet
  facet normal 0 0 1
    outer loop
      vertex 39 -28 1.5
      vertex 41.6111 -21.3304 1.5
      vertex 41.3686 -21.1314 1.5
    endloop
  endfacet
  facet normal 0 0 1
    outer loop
      vertex 42.8121 -21.5693 1.5
      vertex 39 -28 1.5
      vertex 49 -28 1.5
    endloop
  endfacet
  facet normal 0 0 1
    outer loop
      vertex 41.1696 -20.8889 1.5
      vertex 39 -28 1.5
      vertex 41.3686 -21.1314 1.5
    endloop
  endfacet
  facet normal 0 0 1
    outer loop
      vertex 41.0218 -20.6123 1.5
      vertex 39 -28 1.5
      vertex 41.1696 -20.8889 1.5
    endloop
  endfacet
  facet normal 0 0 1
    outer loop
      vertex 40.9307 -20.3121 1.5
      vertex 39 -28 1.5
      vertex 41.0218 -20.6123 1.5
    endloop
  endfacet
  facet normal 0 0 1
    outer loop
      vertex 40.9 -20 1.5
      vertex 39 -28 1.5
      vertex 40.9307 -20.3121 1.5
    endloop
  endfacet
  facet normal 0 0 1
    outer loop
      vertex 40.9307 -19.6879 1.5
      vertex 39 -28 1.5
      vertex 40.9 -20 1.5
    endloop
  endfacet
  facet normal -1 0 0
    outer loop
      vertex -49 -28 0
      vertex -49 28 1.5
      vertex -49 28 0
    endloop
  endfacet
  facet normal -1 -0 0
    outer loop
      vertex -49 28 1.5
      vertex -49 -28 0
      vertex -49 -28 1.5
    endloop
  endfacet
  facet normal -1 0 0
    outer loop
      vertex 37.5 -26.5 0
      vertex 37.5 26.5 8.5
      vertex 37.5 26.5 0
    endloop
  endfacet
  facet normal -1 -0 0
    outer loop
      vertex 37.5 26.5 8.5
      vertex 37.5 -26.5 0
      vertex 37.5 -26.5 8.5
    endloop
  endfacet
  facet normal 0 0 -1
    outer loop
      vertex 37.5 -26.5 8.5
      vertex 30 -15 8.5
      vertex 37.5 26.5 8.5
    endloop
  endfacet
  facet normal 0 0 -1
    outer loop
      vertex 37.5 -26.5 8.5
      vertex -30 -15 8.5
      vertex 30 -15 8.5
    endloop
  endfacet
  facet normal -0 0 -1
    outer loop
      vertex -30 -15 8.5
      vertex -37.5 -26.5 8.5
      vertex -30 15 8.5
    endloop
  endfacet
  facet normal 0 0 -1
    outer loop
      vertex -37.5 -26.5 8.5
      vertex -30 -15 8.5
      vertex 37.5 -26.5 8.5
    endloop
  endfacet
  facet normal 0 0 -1
    outer loop
      vertex 30 15 8.5
      vertex 37.5 26.5 8.5
      vertex 30 -15 8.5
    endloop
  endfacet
  facet normal 0 0 -1
    outer loop
      vertex -30 15 8.5
      vertex 37.5 26.5 8.5
      vertex 30 15 8.5
    endloop
  endfacet
  facet normal 0 0 -1
    outer loop
      vertex -30 15 8.5
      vertex -37.5 26.5 8.5
      vertex 37.5 26.5 8.5
    endloop
  endfacet
  facet normal 0 0 -1
    outer loop
      vertex -37.5 26.5 8.5
      vertex -30 15 8.5
      vertex -37.5 -26.5 8.5
    endloop
  endfacet
  facet normal 1 -0 0
    outer loop
      vertex -37.5 -26.5 8.5
      vertex -37.5 26.5 0
      vertex -37.5 26.5 8.5
    endloop
  endfacet
  facet normal 1 0 0
    outer loop
      vertex -37.5 26.5 0
      vertex -37.5 -26.5 8.5
      vertex -37.5 -26.5 0
    endloop
  endfacet
  facet normal 0 -1 0
    outer loop
      vertex -37.5 26.5 0
      vertex 37.5 26.5 8.5
      vertex -37.5 26.5 8.5
    endloop
  endfacet
  facet normal 0 -1 -0
    outer loop
      vertex 37.5 26.5 8.5
      vertex -37.5 26.5 0
      vertex 37.5 26.5 0
    endloop
  endfacet
  facet normal 0 1 -0
    outer loop
      vertex 37.5 -26.5 0
      vertex -37.5 -26.5 8.5
      vertex 37.5 -26.5 8.5
    endloop
  endfacet
  facet normal 0 1 0
    outer loop
      vertex -37.5 -26.5 8.5
      vertex 37.5 -26.5 0
      vertex -37.5 -26.5 0
    endloop
  endfacet
  facet normal -1 0 0
    outer loop
      vertex 30 -15 8.5
      vertex 30 15 10
      vertex 30 15 8.5
    endloop
  endfacet
  facet normal -1 -0 0
    outer loop
      vertex 30 15 10
      vertex 30 -15 8.5
      vertex 30 -15 10
    endloop
  endfacet
  facet normal 1 -0 0
    outer loop
      vertex -30 -15 10
      vertex -30 15 8.5
      vertex -30 15 10
    endloop
  endfacet
  facet normal 1 0 0
    outer loop
      vertex -30 15 8.5
      vertex -30 -15 10
      vertex -30 -15 8.5
    endloop
  endfacet
  facet normal 0 -1 0
    outer loop
      vertex -30 15 8.5
      vertex 30 15 10
      vertex -30 15 10
    endloop
  endfacet
  facet normal 0 -1 -0
    outer loop
      vertex 30 15 10
      vertex -30 15 8.5
      vertex 30 15 8.5
    endloop
  endfacet
  facet normal 0 1 -0
    outer loop
      vertex 30 -15 8.5
      vertex -30 -15 10
      vertex 30 -15 10
    endloop
  endfacet
  facet normal 0 1 0
    outer loop
      vertex -30 -15 10
      vertex 30 -15 8.5
      vertex -30 -15 8.5
    endloop
  endfacet
endsolid OpenSCAD_Model
