solid OpenSCAD_Model
  facet normal 1 -0 0
    outer loop
      vertex 40.5 -30.5 1.5
      vertex 40.5 30.5 0
      vertex 40.5 30.5 1.5
    endloop
  endfacet
  facet normal 1 0 0
    outer loop
      vertex 40.5 30.5 0
      vertex 40.5 -30.5 1.5
      vertex 40.5 -30.5 0
    endloop
  endfacet
  facet normal 0 0 1
    outer loop
      vertex 40.5 30.5 1.5
      vertex 38.4001 27.4001 1.5
      vertex 40.5 -30.5 1.5
    endloop
  endfacet
  facet normal -0 0 1
    outer loop
      vertex 37.5 30.5 1.5
      vertex 38.4001 27.4001 1.5
      vertex 40.5 30.5 1.5
    endloop
  endfacet
  facet normal 0 0 1
    outer loop
      vertex 38.4001 27.4001 1.5
      vertex 37.5 30.5 1.5
      vertex 37.5 27.4001 1.5
    endloop
  endfacet
  facet normal -0 0 1
    outer loop
      vertex 38.4001 -27.4001 1.5
      vertex 40.5 -30.5 1.5
      vertex 38.4001 27.4001 1.5
    endloop
  endfacet
  facet normal 0 0 1
    outer loop
      vertex 37.5 -30.5 1.5
      vertex 38.4001 -27.4001 1.5
      vertex 37.5 -27.4001 1.5
    endloop
  endfacet
  facet normal 0 0 1
    outer loop
      vertex 38.4001 -27.4001 1.5
      vertex 37.5 -30.5 1.5
      vertex 40.5 -30.5 1.5
    endloop
  endfacet
  facet normal 0 0 -1
    outer loop
      vertex -39.4607 -28.4607 0
      vertex 37.5 28.4607 0
      vertex 37.5 -28.4607 0
    endloop
  endfacet
  facet normal -0 0 -1
    outer loop
      vertex 37.5 28.4607 0
      vertex -39.4607 -28.4607 0
      vertex -39.4607 28.4607 0
    endloop
  endfacet
  facet normal 0 0 -1
    outer loop
      vertex 37.5 -28.4607 0
      vertex 40.5 -30.5 0
      vertex 37.5 -30.5 0
    endloop
  endfacet
  facet normal 0 0 -1
    outer loop
      vertex 40.5 -30.5 0
      vertex 37.5 -28.4607 0
      vertex 40.5 30.5 0
    endloop
  endfacet
  facet normal 0 0 -1
    outer loop
      vertex 37.5 28.4607 0
      vertex 40.5 30.5 0
      vertex 37.5 -28.4607 0
    endloop
  endfacet
  facet normal -0 0 -1
    outer loop
      vertex 40.5 30.5 0
      vertex 37.5 28.4607 0
      vertex 37.5 30.5 0
    endloop
  endfacet
  facet normal -1 0 0
    outer loop
      vertex 37.5 28.4607 9.91821e-05
      vertex 37.5 30.5 0
      vertex 37.5 28.4607 0
    endloop
  endfacet
  facet normal -1 0 0
    outer loop
      vertex 37.5 30.5 0
      vertex 37.5 28.4607 9.91821e-05
      vertex 37.5 30.5 1.5
    endloop
  endfacet
  facet normal -1 -0 0
    outer loop
      vertex 37.5 30.5 1.5
      vertex 37.5 28.4607 9.91821e-05
      vertex 37.5 27.4001 1.5
    endloop
  endfacet
  facet normal -1 0 0
    outer loop
      vertex 37.5 -28.4607 0
      vertex 37.5 -30.5 0
      vertex 37.5 -28.4607 9.91821e-05
    endloop
  endfacet
  facet normal -1 0 0
    outer loop
      vertex 37.5 -30.5 1.5
      vertex 37.5 -28.4607 9.91821e-05
      vertex 37.5 -30.5 0
    endloop
  endfacet
  facet normal -1 0 0
    outer loop
      vertex 37.5 -28.4607 9.91821e-05
      vertex 37.5 -30.5 1.5
      vertex 37.5 -27.4001 1.5
    endloop
  endfacet
  facet normal 0 1 -0
    outer loop
      vertex 40.5 30.5 0
      vertex 37.5 30.5 1.5
      vertex 40.5 30.5 1.5
    endloop
  endfacet
  facet normal 0 1 0
    outer loop
      vertex 37.5 30.5 1.5
      vertex 40.5 30.5 0
      vertex 37.5 30.5 0
    endloop
  endfacet
  facet normal 0 -1 0
    outer loop
      vertex 37.5 -30.5 0
      vertex 40.5 -30.5 1.5
      vertex 37.5 -30.5 1.5
    endloop
  endfacet
  facet normal 0 -1 -0
    outer loop
      vertex 40.5 -30.5 1.5
      vertex 37.5 -30.5 0
      vertex 40.5 -30.5 0
    endloop
  endfacet
  facet normal -0 0.707107 0.707107
    outer loop
      vertex 37.5 27.4001 1.5
      vertex 38.4 27.4 1.5001
      vertex 38.4001 27.4001 1.5
    endloop
  endfacet
  facet normal 0 0.707107 0.707107
    outer loop
      vertex 38.4 27.4 1.5001
      vertex 37.5 27.4001 1.5
      vertex -38.4 27.4 1.5001
    endloop
  endfacet
  facet normal -3.15073e-07 0.816494 0.577354
    outer loop
      vertex 37.5 28.4607 9.91821e-05
      vertex -38.4 27.4 1.5001
      vertex 37.5 27.4001 1.5
    endloop
  endfacet
  facet normal 0 0.816487 0.577365
    outer loop
      vertex -38.4 27.4 1.5001
      vertex 37.5 28.4607 9.91821e-05
      vertex -39.4607 28.4607 9.91821e-05
    endloop
  endfacet
  facet normal 0 -0.707107 0.707107
    outer loop
      vertex -38.4 -27.4 1.5001
      vertex 37.5 -27.4001 1.5
      vertex 38.4 -27.4 1.5001
    endloop
  endfacet
  facet normal 0 -0.816487 0.577365
    outer loop
      vertex 37.5 -28.4607 9.91821e-05
      vertex -38.4 -27.4 1.5001
      vertex -39.4607 -28.4607 9.91821e-05
    endloop
  endfacet
  facet normal -3.15073e-07 -0.816494 0.577354
    outer loop
      vertex -38.4 -27.4 1.5001
      vertex 37.5 -28.4607 9.91821e-05
      vertex 37.5 -27.4001 1.5
    endloop
  endfacet
  facet normal 0 -0.707107 0.707107
    outer loop
      vertex 38.4 -27.4 1.5001
      vertex 37.5 -27.4001 1.5
      vertex 38.4001 -27.4001 1.5
    endloop
  endfacet
  facet normal -1 0 0
    outer loop
      vertex -39.4607 -28.4607 0
      vertex -39.4607 28.4607 9.91821e-05
      vertex -39.4607 28.4607 0
    endloop
  endfacet
  facet normal -1 -0 0
    outer loop
      vertex -39.4607 28.4607 9.91821e-05
      vertex -39.4607 -28.4607 0
      vertex -39.4607 -28.4607 9.91821e-05
    endloop
  endfacet
  facet normal 0 1 -0
    outer loop
      vertex 37.5 28.4607 0
      vertex -39.4607 28.4607 9.91821e-05
      vertex 37.5 28.4607 9.91821e-05
    endloop
  endfacet
  facet normal 0 1 0
    outer loop
      vertex -39.4607 28.4607 9.91821e-05
      vertex 37.5 28.4607 0
      vertex -39.4607 28.4607 0
    endloop
  endfacet
  facet normal -0.816487 0 0.577365
    outer loop
      vertex -39.4607 28.4607 9.91821e-05
      vertex -38.4 -27.4 1.5001
      vertex -38.4 27.4 1.5001
    endloop
  endfacet
  facet normal -0.816487 0 0.577365
    outer loop
      vertex -38.4 -27.4 1.5001
      vertex -39.4607 28.4607 9.91821e-05
      vertex -39.4607 -28.4607 9.91821e-05
    endloop
  endfacet
  facet normal 0 -1 0
    outer loop
      vertex -39.4607 -28.4607 0
      vertex 37.5 -28.4607 9.91821e-05
      vertex -39.4607 -28.4607 9.91821e-05
    endloop
  endfacet
  facet normal 0 -1 -0
    outer loop
      vertex 37.5 -28.4607 9.91821e-05
      vertex -39.4607 -28.4607 0
      vertex 37.5 -28.4607 0
    endloop
  endfacet
  facet normal 0.707107 -0 0.707107
    outer loop
      vertex 38.4 -27.4 1.5001
      vertex 38.4001 27.4001 1.5
      vertex 38.4 27.4 1.5001
    endloop
  endfacet
  facet normal 0.707107 0 0.707107
    outer loop
      vertex 38.4001 27.4001 1.5
      vertex 38.4 -27.4 1.5001
      vertex 38.4001 -27.4001 1.5
    endloop
  endfacet
  facet normal 0 0 1
    outer loop
      vertex 38.4 27.4 1.5001
      vertex 32.5 7.5 1.5001
      vertex 38.4 -27.4 1.5001
    endloop
  endfacet
  facet normal 0 0 1
    outer loop
      vertex 38.4 27.4 1.5001
      vertex 30.5 7.5 1.5001
      vertex 32.5 7.5 1.5001
    endloop
  endfacet
  facet normal 0 0 1
    outer loop
      vertex 30.5 7.5 1.5001
      vertex 28.5 7.5 1.5001
      vertex 30.5 -7.5 1.5001
    endloop
  endfacet
  facet normal 0 0 1
    outer loop
      vertex 38.4 27.4 1.5001
      vertex 28.5 7.5 1.5001
      vertex 30.5 7.5 1.5001
    endloop
  endfacet
  facet normal 0 0 1
    outer loop
      vertex 38.4 27.4 1.5001
      vertex 26.5 7.5 1.5001
      vertex 28.5 7.5 1.5001
    endloop
  endfacet
  facet normal 0 0 1
    outer loop
      vertex 26.5 7.5 1.5001
      vertex 24.5 7.5 1.5001
      vertex 26.5 -7.5 1.5001
    endloop
  endfacet
  facet normal 0 0 1
    outer loop
      vertex 38.4 27.4 1.5001
      vertex 24.5 7.5 1.5001
      vertex 26.5 7.5 1.5001
    endloop
  endfacet
  facet normal 0 0 1
    outer loop
      vertex 38.4 27.4 1.5001
      vertex 22.5 7.5 1.5001
      vertex 24.5 7.5 1.5001
    endloop
  endfacet
  facet normal 0 0 1
    outer loop
      vertex 22.5 7.5 1.5001
      vertex -38.4 27.4 1.5001
      vertex 22.5 -7.5 1.5001
    endloop
  endfacet
  facet normal -0 0 1
    outer loop
      vertex -38.4 27.4 1.5001
      vertex 22.5 7.5 1.5001
      vertex 38.4 27.4 1.5001
    endloop
  endfacet
  facet normal -0 0 1
    outer loop
      vertex 32.5 -7.5 1.5001
      vertex 38.4 -27.4 1.5001
      vertex 32.5 7.5 1.5001
    endloop
  endfacet
  facet normal -0 0 1
    outer loop
      vertex 30.5 -7.5 1.5001
      vertex 38.4 -27.4 1.5001
      vertex 32.5 -7.5 1.5001
    endloop
  endfacet
  facet normal 0 0 1
    outer loop
      vertex 28.5 -7.5 1.5001
      vertex 30.5 -7.5 1.5001
      vertex 28.5 7.5 1.5001
    endloop
  endfacet
  facet normal -0 0 1
    outer loop
      vertex 28.5 -7.5 1.5001
      vertex 38.4 -27.4 1.5001
      vertex 30.5 -7.5 1.5001
    endloop
  endfacet
  facet normal -0 0 1
    outer loop
      vertex 26.5 -7.5 1.5001
      vertex 38.4 -27.4 1.5001
      vertex 28.5 -7.5 1.5001
    endloop
  endfacet
  facet normal 0 0 1
    outer loop
      vertex 24.5 -7.5 1.5001
      vertex 26.5 -7.5 1.5001
      vertex 24.5 7.5 1.5001
    endloop
  endfacet
  facet normal -0 0 1
    outer loop
      vertex 24.5 -7.5 1.5001
      vertex 38.4 -27.4 1.5001
      vertex 26.5 -7.5 1.5001
    endloop
  endfacet
  facet normal -0 0 1
    outer loop
      vertex 22.5 -7.5 1.5001
      vertex 38.4 -27.4 1.5001
      vertex 24.5 -7.5 1.5001
    endloop
  endfacet
  facet normal 0 0 1
    outer loop
      vertex -38.4 -27.4 1.5001
      vertex 22.5 -7.5 1.5001
      vertex -38.4 27.4 1.5001
    endloop
  endfacet
  facet normal 0 0 1
    outer loop
      vertex 22.5 -7.5 1.5001
      vertex -38.4 -27.4 1.5001
      vertex 38.4 -27.4 1.5001
    endloop
  endfacet
  facet normal -1 0 0
    outer loop
      vertex 32.5 -7.5 0.75
      vertex 32.5 7.5 1.5001
      vertex 32.5 7.5 0.75
    endloop
  endfacet
  facet normal -1 -0 0
    outer loop
      vertex 32.5 7.5 1.5001
      vertex 32.5 -7.5 0.75
      vertex 32.5 -7.5 1.5001
    endloop
  endfacet
  facet normal -0 0 1
    outer loop
      vertex 30.5 7.5 0.75
      vertex 32.5 -7.5 0.75
      vertex 32.5 7.5 0.75
    endloop
  endfacet
  facet normal 0 0 1
    outer loop
      vertex 32.5 -7.5 0.75
      vertex 30.5 7.5 0.75
      vertex 30.5 -7.5 0.75
    endloop
  endfacet
  facet normal 1 -0 0
    outer loop
      vertex 30.5 -7.5 1.5001
      vertex 30.5 7.5 0.75
      vertex 30.5 7.5 1.5001
    endloop
  endfacet
  facet normal 1 0 0
    outer loop
      vertex 30.5 7.5 0.75
      vertex 30.5 -7.5 1.5001
      vertex 30.5 -7.5 0.75
    endloop
  endfacet
  facet normal 0 -1 0
    outer loop
      vertex 30.5 7.5 0.75
      vertex 32.5 7.5 1.5001
      vertex 30.5 7.5 1.5001
    endloop
  endfacet
  facet normal 0 -1 -0
    outer loop
      vertex 32.5 7.5 1.5001
      vertex 30.5 7.5 0.75
      vertex 32.5 7.5 0.75
    endloop
  endfacet
  facet normal 0 1 -0
    outer loop
      vertex 32.5 -7.5 0.75
      vertex 30.5 -7.5 1.5001
      vertex 32.5 -7.5 1.5001
    endloop
  endfacet
  facet normal 0 1 0
    outer loop
      vertex 30.5 -7.5 1.5001
      vertex 32.5 -7.5 0.75
      vertex 30.5 -7.5 0.75
    endloop
  endfacet
  facet normal -1 0 0
    outer loop
      vertex 28.5 -7.5 0.75
      vertex 28.5 7.5 1.5001
      vertex 28.5 7.5 0.75
    endloop
  endfacet
  facet normal -1 -0 0
    outer loop
      vertex 28.5 7.5 1.5001
      vertex 28.5 -7.5 0.75
      vertex 28.5 -7.5 1.5001
    endloop
  endfacet
  facet normal -0 0 1
    outer loop
      vertex 26.5 7.5 0.75
      vertex 28.5 -7.5 0.75
      vertex 28.5 7.5 0.75
    endloop
  endfacet
  facet normal 0 0 1
    outer loop
      vertex 28.5 -7.5 0.75
      vertex 26.5 7.5 0.75
      vertex 26.5 -7.5 0.75
    endloop
  endfacet
  facet normal 1 -0 0
    outer loop
      vertex 26.5 -7.5 1.5001
      vertex 26.5 7.5 0.75
      vertex 26.5 7.5 1.5001
    endloop
  endfacet
  facet normal 1 0 0
    outer loop
      vertex 26.5 7.5 0.75
      vertex 26.5 -7.5 1.5001
      vertex 26.5 -7.5 0.75
    endloop
  endfacet
  facet normal 0 -1 0
    outer loop
      vertex 26.5 7.5 0.75
      vertex 28.5 7.5 1.5001
      vertex 26.5 7.5 1.5001
    endloop
  endfacet
  facet normal 0 -1 -0
    outer loop
      vertex 28.5 7.5 1.5001
      vertex 26.5 7.5 0.75
      vertex 28.5 7.5 0.75
    endloop
  endfacet
  facet normal 0 1 -0
    outer loop
      vertex 28.5 -7.5 0.75
      vertex 26.5 -7.5 1.5001
      vertex 28.5 -7.5 1.5001
    endloop
  endfacet
  facet normal 0 1 0
    outer loop
      vertex 26.5 -7.5 1.5001
      vertex 28.5 -7.5 0.75
      vertex 26.5 -7.5 0.75
    endloop
  endfacet
  facet normal -1 0 0
    outer loop
      vertex 24.5 -7.5 0.75
      vertex 24.5 7.5 1.5001
      vertex 24.5 7.5 0.75
    endloop
  endfacet
  facet normal -1 -0 0
    outer loop
      vertex 24.5 7.5 1.5001
      vertex 24.5 -7.5 0.75
      vertex 24.5 -7.5 1.5001
    endloop
  endfacet
  facet normal -0 0 1
    outer loop
      vertex 22.5 7.5 0.75
      vertex 24.5 -7.5 0.75
      vertex 24.5 7.5 0.75
    endloop
  endfacet
  facet normal 0 0 1
    outer loop
      vertex 24.5 -7.5 0.75
      vertex 22.5 7.5 0.75
      vertex 22.5 -7.5 0.75
    endloop
  endfacet
  facet normal 1 -0 0
    outer loop
      vertex 22.5 -7.5 1.5001
      vertex 22.5 7.5 0.75
      vertex 22.5 7.5 1.5001
    endloop
  endfacet
  facet normal 1 0 0
    outer loop
      vertex 22.5 7.5 0.75
      vertex 22.5 -7.5 1.5001
      vertex 22.5 -7.5 0.75
    endloop
  endfacet
  facet normal 0 -1 0
    outer loop
      vertex 22.5 7.5 0.75
      vertex 24.5 7.5 1.5001
      vertex 22.5 7.5 1.5001
    endloop
  endfacet
  facet normal 0 -1 -0
    outer loop
      vertex 24.5 7.5 1.5001
      vertex 22.5 7.5 0.75
      vertex 24.5 7.5 0.75
    endloop
  endfacet
  facet normal 0 1 -0
    outer loop
      vertex 24.5 -7.5 0.75
      vertex 22.5 -7.5 1.5001
      vertex 24.5 -7.5 1.5001
    endloop
  endfacet
  facet normal 0 1 0
    outer loop
      vertex 22.5 -7.5 1.5001
      vertex 24.5 -7.5 0.75
      vertex 22.5 -7.5 0.75
    endloop
  endfacet
endsolid OpenSCAD_Model
